<?xml version="1.0" encoding="UTF-8"?>
<svg width="59px" height="59px" viewBox="10 10 40 40" version="1.1" xmlns="http://www.w3.org/2000/svg" xmlns:xlink="http://www.w3.org/1999/xlink">
    <title>oasis-icon-blue</title>
    <g id="oasis-icon-blue" stroke="none" stroke-width="1" fill="none" fill-rule="evenodd">
        <rect fill="#FFFFFF" x="0" y="0" width="59" height="59"></rect>
        <path d="M45.1445298,18.5266389 C42.2681009,14.8464444 38.0458201,12.5173611 33.3765052,12.5173611 C24.346102,12.5173611 17.739288,20.9090278 17.739288,30 C17.739288,36.3375556 21.9452076,41.0801667 26.6240226,41.0801667 C27.0610286,41.0801667 27.494868,41.0405833 27.9223739,40.9619444 C24.7889137,38.6766667 22.7838581,34.5140833 22.7838581,30 C22.7838581,22.8121944 27.6463423,17.2108889 33.3765052,17.2108889 C39.6260087,17.2108889 43.9717913,23.4170278 43.9717913,30 C43.9554299,34.8618889 42.2221836,39.6958056 39.1721135,43.2625278 C36.5099654,46.3758889 33.0619453,48.3503056 29.2708649,48.9767778 C29.2708649,48.9767778 29.5870082,49 30.0002639,49 C40.4936874,49 49,40.4932778 49,30 C49,25.6891111 47.5633689,21.7144167 45.1445298,18.5266389 Z M42.260712,30 C42.260712,23.6619167 38.0547924,18.9193056 33.3765052,18.9193056 C32.9389714,18.9193056 32.5056598,18.9588889 32.0776261,19.0380556 C35.2116141,21.3233333 37.2161419,25.4859167 37.2161419,30 C37.2161419,37.1878056 32.3541855,42.7891111 26.6240226,42.7891111 C20.3739913,42.7891111 16.0287365,36.5829722 16.0287365,30 C16.0445701,25.1381111 17.7783441,20.3041944 20.8278865,16.7374722 C23.4905624,13.6241111 26.9385825,11.6496944 30.7291351,11.0232222 C30.7291351,11.0232222 30.4135196,11 30.0002639,11 C19.5068404,11 11,19.5067222 11,30 C11,34.3103611 12.4366311,38.2850556 14.855998,41.4738889 C17.7318991,45.1530278 21.9547077,47.4826389 26.6240226,47.4826389 C35.6544258,47.4826389 42.260712,39.0909722 42.260712,30 L42.260712,30 Z" id="Fill-1" fill="#0092F6"></path>
    </g>
</svg>