<svg id="Layer_1" data-name="Layer 1" xmlns="http://www.w3.org/2000/svg" viewBox="0 0 38.27783 38.27551"><defs><style>.cls-1{fill:#202020;}</style></defs><title>C1</title><rect class="cls-1" x="1.25562" y="31.00928" width="6.01317" height="6.01317" transform="translate(-22.80448 12.97685) rotate(-45)"/><rect class="cls-1" x="31.01929" y="1.24537" width="6.01317" height="6.01317" transform="translate(6.95936 25.3053) rotate(-45)"/><path class="cls-1" d="M36.15186,19.13391l-4.252-4.252L27.648,10.63,23.396,6.37793,19.144,2.126l-4.252,4.252L10.64014,10.63l-4.252,4.252-4.252,4.252,4.252,4.252,4.252,4.25208,4.25195,4.252,4.252,4.252,4.252-4.252,4.252-4.252,4.25195-4.25208ZM23.396,23.38586l-4.252,4.25208-4.252-4.25208-4.25195-4.252,4.25195-4.252,4.252-4.252,4.252,4.252,4.252,4.252Z"/><rect class="cls-1" x="31.01417" y="31.01697" width="6.01317" height="6.01317" transform="translate(-14.09384 34.02157) rotate(-45)"/><rect class="cls-1" x="1.24537" y="1.24818" width="6.01317" height="6.01317" transform="translate(-1.7632 4.25278) rotate(-45)"/></svg>