<svg id="Layer_1" data-name="Layer 1" xmlns="http://www.w3.org/2000/svg" viewBox="0 0 113.7085 77.63715"><defs><style>.cls-1{fill:#fff;}</style></defs><title>C1</title><path class="cls-1" d="M7.77441,60.32056a3.446,3.446,0,0,1,3.54737,2.91491H15.49a7.36459,7.36459,0,0,0-7.74512-6.49365A7.81173,7.81173,0,0,0,2.06934,58.993,5.79415,5.79415,0,0,0,.355,62.08093,27.37842,27.37842,0,0,0,0,67.18945,27.37871,27.37871,0,0,0,.355,72.298a5.89987,5.89987,0,0,0,1.71436,3.088,7.81028,7.81028,0,0,0,5.67553,2.25116A7.3835,7.3835,0,0,0,15.49,71.14349H11.32178a3.446,3.446,0,0,1-3.54737,2.91492A3.28673,3.28673,0,0,1,5.14355,72.9906c-.85693-.89477-1.03466-1.81836-1.03466-5.80115s.17773-4.90631,1.03466-5.80108A3.28806,3.28806,0,0,1,7.77441,60.32056Z"/><path class="cls-1" d="M31.33228,56.91907h-.00049V65.1347H27.22217v4.10956h4.10962v-.38073h.00049v.38433h-.00049V77.467h4.10962v-.00293h0V56.91486H31.33228Zm-.00049,8.39453v-.17536h.00049v.17536Z"/><polygon class="cls-1" points="20.099 77.464 24.208 77.464 24.208 71.012 24.208 68.864 24.208 65.314 24.208 63.083 24.208 56.915 20.099 56.915 20.099 77.464"/><path class="cls-1" d="M47.99658,56.74182A7.7737,7.7737,0,0,0,42.2915,58.993c-2.12841,2.07806-2.06909,4.64655-2.06909,8.19647s-.05932,6.11847,2.06909,8.19654a8.31761,8.31761,0,0,0,11.38086,0c2.12842-2.07807,2.09888-4.64655,2.09888-8.19654s.02954-6.11841-2.09888-8.19647A7.7049,7.7049,0,0,0,47.99658,56.74182Zm2.63111,16.22a3.4544,3.4544,0,0,1-2.63111,1.09662,3.52112,3.52112,0,0,1-2.66015-1.09662c-.79834-.866-1.00538-1.8183-1.00538-5.77234s.207-4.90631,1.00538-5.77227a3.52112,3.52112,0,0,1,2.66015-1.09662,3.4544,3.4544,0,0,1,2.63111,1.09662c.79809.866,1.03491,1.81829,1.03491,5.77227S51.42578,72.09583,50.62769,72.96179Z"/><path class="cls-1" d="M75.25317,63.20673c0-3.43445-2.54223-6.29187-6.82861-6.29187H60.17725V77.46411h4.10913V69.26758h2.95556l4.10913,8.19653h4.75928l-4.70019-8.86035A5.54594,5.54594,0,0,0,75.25317,63.20673Zm-7.09472,2.7127H64.28638V60.49359h3.87207a2.72537,2.72537,0,1,1,0,5.42584Z"/><path class="cls-1" d="M91.095,70.27783a3.653,3.653,0,1,1-7.30151,0v-13.363H79.68481V70.42212c0,4.358,3.429,7.215,7.74463,7.215,4.31592,0,7.74488-2.857,7.74488-7.215V56.91486H91.095Z"/><path class="cls-1" d="M112.08252,67.04523a7.04838,7.04838,0,0,0-4.02026-1.58734l-2.48291-.3465a3.65922,3.65922,0,0,1-1.95118-.808,1.95923,1.95923,0,0,1-.6206-1.47186c0-1.4143,1.06372-2.59765,3.25171-2.59765a5.951,5.951,0,0,1,4.31592,1.4143l2.60107-2.51092a9.14544,9.14544,0,0,0-6.79883-2.39539c-4.55249,0-7.3313,2.56848-7.3313,6.23389a5.3588,5.3588,0,0,0,1.50757,4.04071,7.22229,7.22229,0,0,0,4.07959,1.70288l2.542.34607a3.1736,3.1736,0,0,1,1.86231.72174,2.25744,2.25744,0,0,1,.65039,1.73163c0,1.6449-1.30078,2.53967-3.72461,2.53967a6.99112,6.99112,0,0,1-5.08423-1.73163l-2.66064,2.59766c2.06909,2.04889,4.49316,2.71271,7.68579,2.71271,4.40478,0,7.8042-2.25116,7.8042-6.23389A5.67744,5.67744,0,0,0,112.08252,67.04523Z"/><rect class="cls-1" x="37.88795" y="31.00916" width="6.01317" height="6.01317" transform="translate(-12.07503 38.87978) rotate(-45)"/><rect class="cls-1" x="67.65162" y="1.24537" width="6.01317" height="6.01317" transform="translate(17.68872 51.20826) rotate(-45)"/><path class="cls-1" d="M68.53223,23.3858l4.252-4.252-4.252-4.25195-4.252-4.252-4.252-4.252L55.77637,2.126l-4.252,4.252-4.252,4.252-4.252,4.252-4.252,4.25195,4.252,4.252,4.252,4.252,4.252,4.25195,4.252,4.252,4.252-4.252,4.252-4.25195Zm-12.75586,4.252-4.252-4.252-4.252-4.252,4.252-4.25195,4.252-4.252,4.252,4.252,4.252,4.25195-4.252,4.252Z"/><rect class="cls-1" x="67.64639" y="31.01687" width="6.01326" height="6.01326" transform="translate(-3.36371 59.9266) rotate(-45.00164)"/><rect class="cls-1" x="37.87769" y="1.24811" width="6.01317" height="6.01317" transform="translate(8.9662 30.15572) rotate(-45)"/></svg>