<svg id="Layer_1" data-name="Layer 1" xmlns="http://www.w3.org/2000/svg" viewBox="0 0 164.82842 38.27551"><defs><style>.cls-1{fill:#202020;}</style></defs><title>C1</title><path class="cls-1" d="M58.89434,12.265a3.446,3.446,0,0,1,3.54748,2.91491H66.61a7.36459,7.36459,0,0,0-7.74512-6.49365,7.81229,7.81229,0,0,0-5.67578,2.25116A5.79462,5.79462,0,0,0,51.475,14.02536a27.37883,27.37883,0,0,0-.355,5.10859,27.37856,27.37856,0,0,0,.355,5.10852,5.90033,5.90033,0,0,0,1.71411,3.08795,7.81084,7.81084,0,0,0,5.67578,2.25116A7.38351,7.38351,0,0,0,66.61,23.08792H62.44182a3.446,3.446,0,0,1-3.54748,2.91492A3.2863,3.2863,0,0,1,56.2636,24.935c-.85718-.89477-1.03467-1.81836-1.03467-5.80108s.17749-4.90638,1.03467-5.80115A3.28763,3.28763,0,0,1,58.89434,12.265Z"/><path class="cls-1" d="M82.45232,8.8635h-.00049v8.21564H78.34222v4.10955h4.10961V20.808h.00049v.38433h-.00049v8.21918h4.10962V8.85929H82.45232Zm0,8.39453h-.00049v-.17535h.00049Z"/><polygon class="cls-1" points="71.219 29.409 75.328 29.409 75.328 22.957 75.328 20.808 75.328 17.258 75.328 15.028 75.328 8.859 71.219 8.859 71.219 29.409"/><path class="cls-1" d="M99.11663,8.68625a7.77349,7.77349,0,0,0-5.70508,2.25116C91.283,13.01548,91.34234,15.584,91.34234,19.134s-.05933,6.1184,2.06921,8.19647a8.31731,8.31731,0,0,0,11.38062,0c2.12854-2.07807,2.09912-4.64655,2.09912-8.19647s.02942-6.11847-2.09912-8.19654A7.704,7.704,0,0,0,99.11663,8.68625Zm2.6311,16.22a3.45438,3.45438,0,0,1-2.6311,1.09662,3.52076,3.52076,0,0,1-2.66016-1.09662c-.79834-.866-1.00537-1.8183-1.00537-5.77227s.207-4.90638,1.00537-5.77234A3.52076,3.52076,0,0,1,99.11663,12.265a3.45438,3.45438,0,0,1,2.6311,1.09662c.7981.866,1.03467,1.81829,1.03467,5.77234S102.54583,24.04026,101.74773,24.90622Z"/><path class="cls-1" d="M126.37322,15.15116c0-3.43445-2.54224-6.29187-6.82861-6.29187h-8.24756V29.40854h4.10925V21.212H118.362l4.10913,8.19653h4.75928l-4.7002-8.86035A5.546,5.546,0,0,0,126.37322,15.15116Zm-7.09473,2.7127H115.4063V12.438h3.87219a2.72537,2.72537,0,1,1,0,5.42584Z"/><path class="cls-1" d="M142.215,22.22226a3.653,3.653,0,1,1-7.30152,0V8.85929h-4.10876V22.36655c0,4.358,3.42883,7.215,7.74475,7.215s7.74487-2.857,7.74487-7.215V8.85929H142.215Z"/><path class="cls-1" d="M163.20257,18.98966a7.04842,7.04842,0,0,0-4.02027-1.58734l-2.483-.3465a3.65972,3.65972,0,0,1-1.95117-.808,1.95958,1.95958,0,0,1-.62048-1.47187c0-1.4143,1.06372-2.59765,3.25158-2.59765a5.95023,5.95023,0,0,1,4.3158,1.4143l2.60132-2.51086a9.14523,9.14523,0,0,0-6.79883-2.39545c-4.55249,0-7.3313,2.56848-7.3313,6.23389a5.3588,5.3588,0,0,0,1.50757,4.04071,7.22229,7.22229,0,0,0,4.07959,1.70288l2.542.34607a3.174,3.174,0,0,1,1.86231.72174,2.25748,2.25748,0,0,1,.65039,1.73163c0,1.6449-1.30079,2.53967-3.72486,2.53967a6.991,6.991,0,0,1-5.0841-1.73163l-2.66053,2.59766c2.0691,2.04889,4.49305,2.71271,7.68579,2.71271,4.40467,0,7.80408-2.25116,7.80408-6.23389A5.67736,5.67736,0,0,0,163.20257,18.98966Z"/><rect class="cls-1" x="1.25562" y="31.00928" width="6.01317" height="6.01317" transform="translate(-22.80448 12.97685) rotate(-45)"/><rect class="cls-1" x="31.01929" y="1.24537" width="6.01317" height="6.01317" transform="translate(6.95936 25.3053) rotate(-45)"/><path class="cls-1" d="M36.15186,19.13391l-4.252-4.252L27.648,10.63,23.396,6.37793,19.144,2.126l-4.252,4.252L10.64014,10.63l-4.252,4.252-4.252,4.252,4.252,4.252,4.252,4.25208,4.25195,4.252,4.252,4.252,4.252-4.252,4.252-4.252,4.25195-4.25208ZM23.396,23.38586l-4.252,4.25208-4.252-4.25208-4.25195-4.252,4.25195-4.252,4.252-4.252,4.252,4.252,4.252,4.252Z"/><rect class="cls-1" x="31.01417" y="31.01697" width="6.01317" height="6.01317" transform="translate(-14.09384 34.02157) rotate(-45)"/><rect class="cls-1" x="1.24537" y="1.24818" width="6.01317" height="6.01317" transform="translate(-1.7632 4.25278) rotate(-45)"/></svg>