<?xml version="1.0" encoding="UTF-8"?>
<svg width="40px" height="40px" viewBox="0 0 40 40" version="1.1" xmlns="http://www.w3.org/2000/svg" xmlns:xlink="http://www.w3.org/1999/xlink">
    <!-- Generator: Sketch 57.1 (83088) - https://sketch.com -->
    <title>Shape</title>
    <desc>Created with Sketch.</desc>
    <g id="Page-1" stroke="none" stroke-width="1" fill="none" fill-rule="evenodd">
        <g class="address-login-icon" id="Artboard" transform="translate(-900.000000, -3506.000000)" fill="#333342" fill-rule="nonzero">
            <path d="M914.234234,3522.21622 L926.846847,3522.21622 C927.543694,3522.21622 928.108108,3521.73243 928.108108,3521.13514 L928.108108,3520.05405 C928.108108,3519.45676 927.543694,3518.97297 926.846847,3518.97297 L914.234234,3518.97297 C913.537387,3518.97297 912.972973,3519.45676 912.972973,3520.05405 L912.972973,3521.13514 C912.972973,3521.73243 913.537387,3522.21622 914.234234,3522.21622 Z M912.972973,3528.7027 C912.972973,3529.3 913.537387,3529.78378 914.234234,3529.78378 L926.846847,3529.78378 C927.543694,3529.78378 928.108108,3529.3 928.108108,3528.7027 L928.108108,3527.62162 C928.108108,3527.02432 927.543694,3526.54054 926.846847,3526.54054 L914.234234,3526.54054 C913.537387,3526.54054 912.972973,3527.02432 912.972973,3527.62162 L912.972973,3528.7027 Z M920,3538.53779 C918.717188,3538.53779 917.434375,3538.13979 916.339062,3537.34299 L900,3525.45946 L900,3542.22445 C900,3544.30966 901.678906,3546 903.75,3546 L936.25,3546 C938.321094,3546 940,3544.30966 940,3542.22445 L940,3525.45946 L923.660938,3537.34299 C922.565625,3538.139 921.282812,3538.53779 920,3538.53779 Z M938.563281,3518.55084 C937.871875,3518.01631 937.216406,3517.51336 936.25,3516.79398 L936.25,3513.39427 C936.25,3511.35244 934.571094,3509.69725 932.5,3509.69725 L926.441406,3509.69725 C926.203906,3509.52781 925.982813,3509.36914 925.735156,3509.192 C924.421875,3508.24695 921.8125,3505.97328 920,3506.00024 C918.1875,3505.97328 915.578906,3508.24695 914.264844,3509.192 C914.017187,3509.36914 913.796094,3509.52781 913.558594,3509.69725 L907.5,3509.69725 C905.428906,3509.69725 903.75,3511.35244 903.75,3513.39427 L903.75,3516.79398 C902.783594,3517.51259 902.128125,3518.01631 901.436719,3518.55084 C900.529925,3519.25144 900,3520.32412 900,3521.45993 L900,3522.2802 L907.5,3527.62162 L907.5,3513.39427 L932.5,3513.39427 L932.5,3527.62162 L940,3522.2802 L940,3521.45993 C940,3520.32464 939.470312,3519.25173 938.563281,3518.55084 Z" id="Shape"></path>
        </g>
    </g>
</svg>