<?xml version="1.0" encoding="UTF-8"?>
<svg width="399px" height="294px" viewBox="0 0 399 294" version="1.1" xmlns="http://www.w3.org/2000/svg" xmlns:xlink="http://www.w3.org/1999/xlink">
    <!-- Generator: Sketch 57.1 (83088) - https://sketch.com -->
    <title>bottom-illustration</title>
    <desc>Created with Sketch.</desc>
    <g id="Page-1" stroke="none" stroke-width="1" fill="none" fill-rule="evenodd">
        <g id="Artboard" transform="translate(-997.000000, -3624.000000)">
            <g id="bottom-illustration" transform="translate(997.000000, 3624.000000)">
                <polygon id="Rectangle" fill="#EBEEF1" fill-rule="nonzero" transform="translate(157.146091, 136.336956) rotate(31.459060) translate(-157.146091, -136.336956) " points="18.6460909 61.8369559 295.229137 62.6175008 295.646091 210.836956 19.0630446 210.056411"></polygon>
                <path d="M273.22164,191.703558 C270.722091,185.902219 266.872785,180.80713 259.174174,176.519184 C255.195133,174.248981 250.921235,172.551015 246.476464,171.474542 C249.466961,170.072408 252.217482,168.199317 254.624994,165.925435 C258.164151,162.732851 260.846679,158.689753 262.423588,154.171419 C263.875127,149.579785 264.468428,144.755925 264.173272,139.945528 C263.623371,131.470529 261.973669,123.247762 257.574462,117.34553 C253.175256,111.443299 246.976374,106.903121 238.777853,103.724996 C232.478989,101.303568 226.030152,99.7901749 216.031956,99.2352643 L216.031956,67 L196.035563,79.6116057 L196.035563,99.2857107 L180.038449,99.2857107 L180.038449,78.6026773 L159.542146,67 L159.542146,99.2857107 L116,99.2857107 L129.997475,123.5 C134.321695,123.505038 137.251167,123.90861 138.745897,124.660261 C140.141228,125.262883 141.288589,126.331635 141.995311,127.687047 C142.645194,128.948207 142.94514,131.924546 142.94514,136.515171 L142.94514,223.888375 C142.94514,228.428553 142.645194,231.354446 141.995311,232.666053 C141.345428,233.97766 140.995491,235.137928 139.445771,235.844203 C137.89605,236.550478 137.846059,236.5 133.546835,236.5 L133.496844,236.5 L116,260.714289 L159.492155,260.714289 L159.492155,293 L179.988458,293 L179.988458,260.714289 L195.985572,260.714289 L195.985572,293 L215.981965,293 L215.981965,260.512504 C228.97962,259.8567 238.227952,258.141522 245.676609,255.316522 C255.324868,251.68438 262.723534,246.387505 268.022578,239.425899 C273.321622,232.464292 275.471234,221.820097 275.921153,213.59733 C276.27108,206.282559 275.471234,196.849067 273.22164,191.703558 Z M179.988458,126.526779 L179.993457,126.526779 L179.993457,125.855842 L193.970935,125.855842 C201.834542,125.855842 228.03979,123.212449 228.474712,144.808563 C228.914632,166.404676 193.970935,165.521864 193.970935,165.521864 L179.993457,165.521864 L179.993457,163.857132 L179.988458,163.857132 L179.988458,126.526779 Z M179.988458,188.071415 L195.985572,188.071415 C199.234986,188.071415 210.41297,188.570835 214.482236,188.757486 C216.14129,188.818335 217.783675,189.113805 219.361355,189.635254 C219.936252,189.831995 220.481153,190.053959 221.071047,190.301147 C223.536768,191.105163 225.86277,192.293228 227.964804,193.822307 C229.335219,194.735604 230.540722,195.878726 231.529161,197.202218 C231.957355,197.799445 232.351264,198.420956 232.708948,199.063691 C233.655399,200.679947 234.357984,202.429458 234.793572,204.254628 C235.270026,206.017432 235.517057,207.835324 235.528439,209.662484 C235.528439,213.59226 234.808569,216.846055 233.033889,219.600429 C230.629323,223.666411 226.685034,226.546902 222.245835,228.579893 C210.767906,233.846499 195.985572,233.473196 195.985572,233.473196 L179.988458,233.473196 L179.988458,188.071415 Z" id="Shape" fill="#3F3D56" fill-rule="nonzero"></path>
                <g id="flower" transform="translate(292.000000, 198.000000)">
                    <circle id="Oval" fill="#FF6584" fill-rule="nonzero" cx="40" cy="12" r="6"></circle>
                    <path d="M86.5,77 L86.5,10" id="Path" stroke="#3F3D56" stroke-width="0.5" fill="#3F3D56" fill-rule="nonzero"></path>
                    <circle id="Oval" fill="#3F3D56" fill-rule="nonzero" cx="85.5" cy="9.5" r="9.5"></circle>
                    <path d="M67.3026864,47.3206408 C53.752537,68.3074634 57.46528,95 57.46528,95 C57.46528,95 83.1471643,87.666202 96.6973136,66.6793592 C110.247463,45.6925165 106.53472,19 106.53472,19 C106.53472,19 80.8528357,26.3338231 67.3026864,47.3206408 Z" id="Path" fill="#3F3D56" fill-rule="nonzero"></path>
                    <path d="M57.9961733,95 C57.9961733,95 57.6625973,94.9467331 57.0486636,94.8223901 C56.5589482,94.7229408 55.8847187,94.5808438 55.0614273,94.3854548 C47.7015268,92.6484134 28.1342394,86.7766119 15.3413589,71.3386736 C-0.670161464,52.0075164 0.00406803645,25 0.00406803645,25 C0.00406803645,25 24.4862454,28.9820439 40.6184076,46.3417231 C41.3174992,47.0876807 41.9976575,47.8608768 42.6588825,48.6613113 C56.5908994,65.4810562 57.8896962,88.1122511 57.9926221,93.7069934 C58.006807,94.5453309 57.9961733,95 57.9961733,95 Z" id="Path" fill="#13818C" fill-rule="nonzero"></path>
                    <path d="M47.6973146,47.3206408 C61.2474626,68.3074634 57.53472,95 57.53472,95 C57.53472,95 31.8528334,87.666202 18.3026854,66.6793592 C4.75253737,45.6925165 8.46527997,19 8.46527997,19 C8.46527997,19 34.1471666,26.3338231 47.6973146,47.3206408 Z" id="Path" stroke="#3F3D56" stroke-width="0.5"></path>
                    <path d="M58,93.8504311 C57.6517439,94.2918419 57.3444785,94.6686208 57.0918076,94.9772324 C56.5318954,95.6482987 56.2143606,96 56.2143606,96 C56.2143606,96 55.828574,95.4904017 55.1798665,94.535842 C51.6188619,89.3180213 40.164241,70.7649475 41.0485021,49.3338044 C41.0963068,48.2105689 41.1748343,47.0993008 41.2840847,46 C41.9566881,46.7535984 42.6110756,47.5347143 43.2472471,48.3433477 C56.6513878,65.3353918 57.9009739,88.1984075 58,93.8504311 Z" id="Path" fill="#000000" fill-rule="nonzero" opacity="0.1"></path>
                    <path d="M77.9493038,51.2680684 C76.8526291,76.3970238 58.0142832,96 58.0142832,96 C58.0142832,96 40.9540105,74.8608869 42.0506953,49.7319316 C43.1473802,24.6029762 61.9857159,5 61.9857159,5 C61.9857159,5 79.0459987,26.1391131 77.9493038,51.2680684 Z" id="Path" fill="#13818C" fill-rule="nonzero"></path>
                    <path d="M58,95 L62,6" id="Path" stroke="#3F3D56" stroke-width="0.5"></path>
                </g>
                <g id="girl" transform="translate(169.000000, 170.000000)">
                    <path d="M53,59.1494833 C41.5919792,64.3639069 26.8996806,63.9943022 26.8996806,63.9943022 L11,63.9943022 L11,60.9425657 C17.4791198,59.12451 26.4375961,58.0007118 36.3401159,58.0007118 C41.9136426,57.9811439 47.4813361,58.3650606 53,59.1494833 Z" id="Path" fill="#000000" fill-rule="nonzero" opacity="0.1"></path>
                    <path d="M72,67.9204244 C72,73.4893899 55.88,78 36,78 C16.12,78 0,73.4893899 0,67.9204244 C0,65.1435013 4.01,62.6286472 10.5,60.8092838 L10.5,63.8885942 L26.5,63.8885942 C26.5,63.8885942 41.285,64.2615385 52.765,59 C64.200015,60.6832992 72,64.0448276 72,67.9204244 Z" id="Path" fill="#000000" fill-rule="nonzero" opacity="0.1"></path>
                    <rect id="Rectangle" fill="#2F2E41" fill-rule="nonzero" x="26" y="5" width="15" height="15"></rect>
                    <path d="M30.6153844,16.6930051 C30.6153844,16.6930051 31.8461533,20.9712996 29.6923066,21.2769265 C28.3556979,21.4838374 27.0890885,22.0079944 26,22.8049019 L30,28 L37.3846107,28 L42,23.4160786 C42,23.4160786 35.8461557,18.8321572 37.0769246,16.0818188 C38.3076934,13.3314805 30.6153844,16.6930051 30.6153844,16.6930051 Z" id="Path" fill="#FFB9B9" fill-rule="nonzero"></path>
                    <path d="M30.6153844,16.6930051 C30.6153844,16.6930051 31.8461533,20.9712996 29.6923066,21.2769265 C28.3556979,21.4838374 27.0890885,22.0079944 26,22.8049019 L30,28 L37.3846107,28 L42,23.4160786 C42,23.4160786 35.8461557,18.8321572 37.0769246,16.0818188 C38.3076934,13.3314805 30.6153844,16.6930051 30.6153844,16.6930051 Z" id="Path" fill="#000000" fill-rule="nonzero" opacity="0.1"></path>
                    <polygon id="Path" fill="#FFB9B9" fill-rule="nonzero" points="33 71.9698579 40.0772964 74.6632585 45 75 44.6922704 70.2861506 34.5386482 67"></polygon>
                    <path d="M43,70.3017954 C43,70.3017954 43,74.8353313 43.6224956,74.8353313 C44.2449568,74.8353313 52.6481976,73.863852 55.1380718,74.8353313 C57.6279461,75.8068105 61.3627034,72.2447233 59.4952904,70.3017954 C57.6278773,68.3588675 54.5818944,65.444399 52.681337,66.0920587 C50.7807797,66.7397183 43,68.3588368 43,68.3588368 L43,70.3017954 Z" id="Path" fill="#2F2E41" fill-rule="nonzero"></path>
                    <path d="M19.0377344,66 C19.0377344,66 15.4150967,74.098143 17.8301869,74.7729914 C20.2452771,75.4478397 22.9622625,74.4355645 23.2641482,74.098143 C23.5660339,73.7607215 27.7924573,72.4110301 28.3962239,73.0858785 C29,73.7607268 29,70.3864957 29,70.3864957 L19.0377344,66 Z" id="Path" fill="#2F2E41" fill-rule="nonzero"></path>
                    <path d="M22.2875129,56 C22.2875129,56 16.1313972,64.1568602 20.6674789,66.3529411 C25.2035607,68.5490221 46.9119552,68.5490171 48.531984,66.3529411 C50.1520129,64.1568651 50.8000275,57.2549176 48.531984,56.6274489 C46.2639406,56 22.2875129,56 22.2875129,56 Z" id="Path" fill="#2F2E41" fill-rule="nonzero"></path>
                    <path d="M22.2875129,56 C22.2875129,56 16.1313972,64.1568602 20.6674789,66.3529411 C25.2035607,68.5490221 46.9119552,68.5490171 48.531984,66.3529411 C50.1520129,64.1568651 50.8000275,57.2549176 48.531984,56.6274489 C46.2639406,56 22.2875129,56 22.2875129,56 Z" id="Path" fill="#000000" fill-rule="nonzero" opacity="0.2"></path>
                    <circle id="Oval" fill="#FFB9B9" fill-rule="nonzero" cx="34" cy="11" r="7"></circle>
                    <path d="M22,22.2800006 L28.3636348,21 C28.3636348,21 29.9545435,26.1199974 35.0454553,25.1600007 C40.1363671,24.200004 41.4090901,21 41.4090901,21 C41.4090901,21 45.2272739,22.5999995 45.5454547,22.5999995 C45.8636354,22.5999995 50,24.199999 50,25.1600007 C50,26.1200024 45.2272639,35.7199994 45.2272639,35.7199994 L45.8636254,53 L22.3181607,52.3599972 L23.9090693,35.4000005 L22,22.2800006 Z" id="Path" fill="#13818C" fill-rule="nonzero"></path>
                    <path d="M19.1052617,31 C19.1052617,31 17.1403507,47.9305493 18.4502931,49.208327 C19.7602355,50.4861048 25,54 25,54 L25,50.1666667 L22.3801152,45.3749937 L25,34.1944419 L19.1052617,31 Z" id="Path" fill="#FFB9B9" fill-rule="nonzero"></path>
                    <path d="M51,30 C51,30 49.8048795,47.4732846 49.8048795,48.1145038 C49.8048795,48.7557229 46.7317086,51 45.7073165,51 C44.6829245,51 44,49.3969471 44,49.3969471 L46.3902464,46.8320605 L44.6829299,33.6870227 L51,30 Z" id="Path" fill="#FFB9B9" fill-rule="nonzero"></path>
                    <path d="M49.0758223,54.5540124 C49.0758223,54.5540124 63.6659191,46.5574845 63.9901423,54.5540124 C64.3143656,62.5505404 56.5329823,65.7491445 56.5329823,65.7491445 C56.5329823,65.7491445 36.4310701,71.6957999 35.6205094,69.522127 C34.8099488,67.3484541 33.1888275,63.82998 34.4857255,63.5101201 C35.7826236,63.1902602 37.4037449,62.5505353 38.0521914,63.1902602 C38.7006378,63.829985 46.8062494,58.3923363 46.8062494,58.3923363 L49.0758223,54.5540124 Z" id="Path" fill="#2F2E41" fill-rule="nonzero"></path>
                    <path d="M55,54 C55,54 52.1071425,55.3333344 51.14286,56.3333365 C50.1785776,57.3333386 46,59 46,59" id="Path" stroke="#000000" stroke-width="0.5" opacity="0.2"></path>
                    <path d="M24.6350882,22.6190462 L22.5877152,22 C22.5877152,22 15.0806734,29.119056 17.469269,30.9761849 C19.8578647,32.8333138 21.2227926,33.4523796 21.9052485,34.0714258 C22.5877044,34.690472 26,35 26,35 L24.6350882,22.6190462 Z" id="Path" fill="#13818C" fill-rule="nonzero"></path>
                    <path d="M46.7443905,25 L49.7943734,25.6857172 C49.7943734,25.6857172 52.1665794,30.8285829 52.8443563,31.5142839 C53.5221332,32.1999849 51.8276936,31.8571398 50.8110362,33.2285688 C49.7943788,34.5999978 48.7777107,37 46.7443905,37 C44.7110704,37 42,33.5714301 42,33.5714301 L46.7443905,25 Z" id="Path" fill="#13818C" fill-rule="nonzero"></path>
                    <path d="M23.0600307,57.5486802 C23.0600307,57.5486802 10.7409879,49.0066473 6.52657712,55.3340768 C2.31216637,61.6615064 24.6809571,70.2035443 27.92281,71.4690262 C31.1646628,72.7345081 34.0823314,74 34.0823314,74 C34.0823314,74 37,67.0398245 37,65.7743376 C37,64.5088507 34.7307051,64.5088557 34.0823314,64.5088557 C33.4339578,64.5088557 30.5162943,63.8761097 29.8679258,62.9269933 C29.2195573,61.9778769 23.0600307,57.5486802 23.0600307,57.5486802 Z" id="Path" fill="#2F2E41" fill-rule="nonzero"></path>
                    <path d="M17,55 C17,55 20.2258102,57.8235301 23.1290359,58.5294098 C26.0322615,59.2352895 27,61 27,61" id="Path" stroke="#000000" stroke-width="0.5" opacity="0.2"></path>
                    <path d="M20.0003057,43.7341023 L20.2591626,57.3300879 C20.2769575,58.2648529 21.0522682,59.0103963 21.9956351,59 L47.5268489,58.715606 C48.4294674,58.7055579 49.1701969,58.0047868 49.2221848,57.1117245 L49.9971455,43.8000485 C50.0243716,43.3324037 49.8559099,42.8743113 49.5314437,42.5336813 C49.2069775,42.1930513 48.7551929,42 48.282514,42 L21.7174826,42 C21.2563651,42 20.814616,42.1837513 20.4916446,42.509906 C20.1686733,42.8360608 19.9916119,43.2772182 20.0003057,43.7341023 L20.0003057,43.7341023 Z" id="Path" fill="#575A89" fill-rule="nonzero"></path>
                    <path d="M17.8283021,22.9191927 C18.5138331,21.4053582 19.4350754,19.9846936 19.8740714,18.381799 C20.4002479,16.4605958 20.1953404,14.4278519 20.1327405,12.4367662 C20.032773,10.6758355 20.1827006,8.90961328 20.5780504,7.1907901 C20.9795442,5.46375826 21.8808284,3.89347428 23.1692303,2.67624515 C26.5168607,-0.314389875 32.6435113,-0.529140562 36.7312053,0.715844598 C38.3426901,1.20665576 40.0593497,2.14131494 40.4589304,3.77891877 C40.5192527,4.02614983 40.5463073,4.28090972 40.6136642,4.52630522 C40.948332,5.74556729 42.1947434,6.51705306 42.6444575,7.69866594 C43.2261189,9.2270034 42.3292354,10.8890293 42.2119971,12.520244 C42.0751267,14.4246699 43.0106193,16.2238285 43.9327031,17.8953852 C44.4808548,18.8890849 45.0507954,19.9476193 44.9963889,21.0813563 C44.9509212,21.7014403 44.7625283,22.3025538 44.4459847,22.8375556 C43.251737,24.8092301 41.1280035,26.0275074 38.8243567,26.0623962 C38.0877053,26.1214298 37.3511338,25.9474063 36.718648,25.5648984 C35.7210593,24.8774753 35.4288806,23.4932446 35.6367007,22.2991206 C35.8445208,21.1049967 36.4502284,20.024965 36.9248102,18.9098005 C37.0704384,18.5675993 37.2018767,18.2195838 37.3230253,17.8680787 C40.3613884,16.170768 41.7369964,12.5305347 40.5812347,9.24596904 C39.425473,5.96140339 36.0741745,3.98691025 32.6434843,4.56926437 C29.2127941,5.15161848 26.6995769,8.1216037 26.6907796,11.6038514 C26.6819824,15.086099 29.1801612,18.0687633 32.6078651,18.6684695 C32.9657335,20.4726303 32.8030952,22.3414578 32.1389573,24.0565453 C31.5350253,25.4519461 30.7766741,26.7751919 29.8781117,28.0014911 C29.5106087,28.6301526 29.0208421,29.1786651 28.4377879,29.6145771 C28.0534396,29.8422798 27.6409236,30.0185819 27.2107818,30.1389781 C25.406463,30.7196914 23.5064378,31.186958 21.6291689,30.9257182 C19.7518999,30.6644783 17.8927211,29.5313969 17.2530302,27.7459345 C16.6925479,26.1814607 17.142771,24.4330121 17.8283021,22.9191927 Z" id="Path" fill="#2F2E41" fill-rule="nonzero"></path>
                    <ellipse id="Oval" fill="#2F2E41" fill-rule="nonzero" cx="33.5" cy="7.5" rx="7.5" ry="4.5"></ellipse>
                </g>
                <g id="bitcoin-coin" transform="translate(234.000000, 8.000000)">
                    <g id="coin" fill-rule="nonzero">
                        <circle id="Oval" fill="#38364D" cx="20" cy="20" r="20"></circle>
                        <circle id="Oval" fill="#3F3D56" cx="20" cy="20" r="17"></circle>
                    </g>
                    <g id="solana-coin" transform="translate(11.000000, 11.000000)">
                        <g id="solana-icon" transform="translate(2.000000, 0.000000)" fill="#13818C">
                            <rect id="Rectangle" x="3.72413793" y="0" width="3.10344828" height="3.10344828"></rect>
                            <rect id="Rectangle" x="0" y="3.72413793" width="3.10344828" height="3.10344828"></rect>
                            <polygon id="Rectangle" points="3.10344828 0 3.10344828 3.10344828 0 3.10344828"></polygon>
                            <polygon id="Rectangle" transform="translate(1.551724, 9.000000) rotate(-90.000000) translate(-1.551724, -9.000000) " points="3.10344828 7.44827586 3.10344828 10.5517241 5.70216288e-12 10.5517241"></polygon>
                            <polygon id="Rectangle" transform="translate(16.448276, 9.000000) rotate(-270.000000) translate(-16.448276, -9.000000) " points="18 7.44827586 18 10.5517241 14.8965517 10.5517241"></polygon>
                            <rect id="Rectangle" x="7.44827586" y="0" width="3.10344828" height="3.10344828"></rect>
                            <rect id="Rectangle" x="11.1724138" y="0" width="3.10344828" height="3.10344828"></rect>
                            <rect id="Rectangle" x="3.72413793" y="7.44827586" width="3.10344828" height="3.10344828"></rect>
                            <rect id="Rectangle" x="7.44827586" y="7.44827586" width="3.10344828" height="3.10344828"></rect>
                            <rect id="Rectangle" x="11.1724138" y="7.44827586" width="3.10344828" height="3.10344828"></rect>
                            <polygon id="Rectangle" points="14.8965517 0 18 0 14.8965517 3.10344828"></polygon>
                            <rect id="Rectangle" x="3.72413793" y="14.8965517" width="3.10344828" height="3.10344828"></rect>
                            <polygon id="Rectangle" points="3.10344828 14.8965517 3.10344828 18 0 18"></polygon>
                            <rect id="Rectangle" x="7.44827586" y="14.8965517" width="3.10344828" height="3.10344828"></rect>
                            <rect id="Rectangle" x="11.1724138" y="14.8965517" width="3.10344828" height="3.10344828"></rect>
                            <rect id="Rectangle" x="14.8965517" y="11.1724138" width="3.10344828" height="3.10344828"></rect>
                            <polygon id="Rectangle" points="14.8965517 14.8965517 18 14.8965517 14.8965517 18"></polygon>
                        </g>
                        <g id="solana-icon" fill="#E2EEEF">
                            <rect id="Rectangle" x="3.72413793" y="0" width="3.10344828" height="3.10344828"></rect>
                            <rect id="Rectangle" x="0" y="3.72413793" width="3.10344828" height="3.10344828"></rect>
                            <polygon id="Rectangle" points="3.10344828 0 3.10344828 3.10344828 0 3.10344828"></polygon>
                            <polygon id="Rectangle" transform="translate(1.551724, 9.000000) rotate(-90.000000) translate(-1.551724, -9.000000) " points="3.10344828 7.44827586 3.10344828 10.5517241 5.70216288e-12 10.5517241"></polygon>
                            <polygon id="Rectangle" transform="translate(16.448276, 9.000000) rotate(-270.000000) translate(-16.448276, -9.000000) " points="18 7.44827586 18 10.5517241 14.8965517 10.5517241"></polygon>
                            <rect id="Rectangle" x="7.44827586" y="0" width="3.10344828" height="3.10344828"></rect>
                            <rect id="Rectangle" x="11.1724138" y="0" width="3.10344828" height="3.10344828"></rect>
                            <rect id="Rectangle" x="3.72413793" y="7.44827586" width="3.10344828" height="3.10344828"></rect>
                            <rect id="Rectangle" x="7.44827586" y="7.44827586" width="3.10344828" height="3.10344828"></rect>
                            <rect id="Rectangle" x="11.1724138" y="7.44827586" width="3.10344828" height="3.10344828"></rect>
                            <polygon id="Rectangle" points="14.8965517 0 18 0 14.8965517 3.10344828"></polygon>
                            <rect id="Rectangle" x="3.72413793" y="14.8965517" width="3.10344828" height="3.10344828"></rect>
                            <polygon id="Rectangle" points="3.10344828 14.8965517 3.10344828 18 0 18"></polygon>
                            <rect id="Rectangle" x="7.44827586" y="14.8965517" width="3.10344828" height="3.10344828"></rect>
                            <rect id="Rectangle" x="11.1724138" y="14.8965517" width="3.10344828" height="3.10344828"></rect>
                            <rect id="Rectangle" x="14.8965517" y="11.1724138" width="3.10344828" height="3.10344828"></rect>
                            <polygon id="Rectangle" points="14.8965517 14.8965517 18 14.8965517 14.8965517 18"></polygon>
                        </g>
                    </g>
                </g>
                <g id="atom-coin" transform="translate(332.000000, 75.000000)">
                    <g id="coin" fill-rule="nonzero">
                        <circle id="Oval" fill="#38364D" cx="30.5" cy="30.5" r="30.5"></circle>
                        <ellipse id="Oval" fill="#3F3D56" cx="30.5522388" cy="30.6029412" rx="26.8656716" ry="26.9117647"></ellipse>
                    </g>
                    <g transform="translate(9.432836, 8.279412)" id="Oval">
                        <ellipse fill="#13818C" cx="21.5671642" cy="22.4264706" rx="16.5671642" ry="17.0441176"></ellipse>
                        <path d="M21.5671642,43.9558824 C24.5349656,43.9558824 26.4925373,34.4561027 26.4925373,22.4264706 C26.4925373,10.3968385 24.5349656,0.897058824 21.5671642,0.897058824 C18.5993628,0.897058824 16.641791,10.3968385 16.641791,22.4264706 C16.641791,34.4561027 18.5993628,43.9558824 21.5671642,43.9558824 Z M21.5671642,42.7256303 C20.8613695,42.7256303 19.8605415,40.6713531 19.122769,37.0910619 C18.3288559,33.2383301 17.8731343,28.0096543 17.8731343,22.4264706 C17.8731343,16.8432869 18.3288559,11.614611 19.122769,7.7618793 C19.8605415,4.18158805 20.8613695,2.12731092 21.5671642,2.12731092 C22.2729588,2.12731092 23.2737868,4.18158805 24.0115594,7.7618793 C24.8054724,11.614611 25.261194,16.8432869 25.261194,22.4264706 C25.261194,28.0096543 24.8054724,33.2383301 24.0115594,37.0910619 C23.2737868,40.6713531 22.2729588,42.7256303 21.5671642,42.7256303 Z" fill="#D3E6E8" fill-rule="nonzero"></path>
                        <path d="M26.4919345,21.9909915 C26.4521531,9.72268145 24.45582,0.0103679172 21.4999555,0 C18.5365643,-0.0103776339 16.6025947,9.69106406 16.6423939,21.9648908 C16.6821752,34.2332009 18.6785084,43.9455144 21.6343729,43.9558824 C24.5977641,43.96626 26.5317337,34.2648183 26.4919345,21.9909915 Z M19.1478006,36.9362296 C18.3387672,33.0002204 17.8643709,27.6606268 17.8458883,21.9606892 C17.8274059,16.260845 18.2671718,10.9246053 19.0506406,6.99446223 C19.7798925,3.33628956 20.775174,1.24624647 21.4958904,1.24877012 C22.2219024,1.2513169 23.2327687,3.35255719 23.9865278,7.01965279 C24.7955612,10.955662 25.2699574,16.2952556 25.2884401,21.9951931 C25.3069225,27.6950374 24.8671566,33.031277 24.0836878,36.9614201 C23.3544359,40.6195928 22.3591543,42.7096359 21.6384379,42.7071122 C20.9124259,42.7045655 19.9015596,40.6033252 19.1478006,36.9362296 Z" fill="#D3E6E8" fill-rule="nonzero" transform="translate(21.567164, 21.977941) rotate(-240.000000) translate(-21.567164, -21.977941) "></path>
                        <path d="M26.4919345,21.9648908 C26.5317337,9.69106406 24.5977641,-0.0103776339 21.6343729,0 C18.6785084,0.0103679172 16.6821752,9.72268145 16.6423939,21.9909915 C16.6025947,34.2648183 18.5365643,43.96626 21.4999555,43.9558824 C24.45582,43.9455144 26.4521531,34.2332009 26.4919345,21.9648908 Z M19.0506406,36.9614201 C18.2671718,33.031277 17.8274059,27.6950374 17.8458883,21.9951931 C17.8643709,16.2952556 18.3387672,10.955662 19.1478006,7.01965279 C19.9015596,3.35255719 20.9124259,1.2513169 21.6384379,1.24877012 C22.3591543,1.24624647 23.3544359,3.33628956 24.0836878,6.99446223 C24.8671566,10.9246053 25.3069225,16.260845 25.2884401,21.9606892 C25.2699574,27.6606268 24.7955612,33.0002204 23.9865278,36.9362296 C23.2327687,40.6033252 22.2219024,42.7045655 21.4958904,42.7071122 C20.775174,42.7096359 19.7798925,40.6195928 19.0506406,36.9614201 Z" fill="#D3E6E8" fill-rule="nonzero" transform="translate(21.567164, 21.977941) rotate(-120.000000) translate(-21.567164, -21.977941) "></path>
                        <ellipse fill="#D3E6E8" cx="8.13432836" cy="17.4926471" rx="1.34328358" ry="1.34558824"></ellipse>
                        <ellipse fill="#D3E6E8" cx="31.4179104" cy="12.1102941" rx="1.34328358" ry="1.34558824"></ellipse>
                        <ellipse fill="#D3E6E8" cx="18.880597" cy="36.3308824" rx="1.34328358" ry="1.34558824"></ellipse>
                        <ellipse fill="#D3E6E8" cx="21.5671642" cy="21.9779412" rx="2.23880597" ry="2.24264706"></ellipse>
                    </g>
                </g>
                <g id="ethem-coin" transform="translate(11.000000, 170.000000)">
                    <g id="coin" fill-rule="nonzero">
                        <circle id="Oval" fill="#38364D" cx="21" cy="21" r="21"></circle>
                        <circle id="Oval" fill="#3F3D56" cx="21" cy="21" r="18"></circle>
                    </g>
                    <g id="ether-coin" transform="translate(13.000000, 8.000000)">
                        <polygon id="Path-2" fill="#13818C" points="-3.17212923e-12 13.1989624 7.99572099 9.61212411 7.99572099 7.23288211e-13"></polygon>
                        <polygon id="Path-3" fill="#BADEE1" points="15.9995847 13.1989624 7.99572099 9.61212411 7.99572099 7.2475359e-13"></polygon>
                        <polygon id="Path-4" fill="#2CA0AC" points="-3.17212923e-12 13.1989624 7.99572099 17.9684884 7.99572099 9.61212411"></polygon>
                        <polygon id="Path-5" fill="#80CFD7" points="7.99572099 17.9684884 15.9995847 13.1989624 7.99572099 9.61212411"></polygon>
                        <polygon id="Path-6" fill="#13818C" points="-3.17212923e-12 14.7952499 7.99572099 19.4617831 7.99572099 25.9554219"></polygon>
                        <polygon id="Path-7" fill="#BADEE1" points="7.99572099 19.4617831 15.9995847 14.7952499 7.99572099 25.9554219"></polygon>
                    </g>
                </g>
            </g>
        </g>
    </g>
</svg>