<?xml version="1.0" encoding="UTF-8"?>
<svg width="36px" height="36px" viewBox="0 0 36 36" version="1.1" xmlns="http://www.w3.org/2000/svg" xmlns:xlink="http://www.w3.org/1999/xlink">
    <!-- Generator: Sketch 57.1 (83088) - https://sketch.com -->
    <title>Shape</title>
    <desc>Created with Sketch.</desc>
    <g id="Page-1" stroke="none" stroke-width="1" fill="none" fill-rule="evenodd">
        <g id="Artboard" transform="translate(-302.000000, -1386.000000)" fill="#13818C" fill-rule="nonzero">
            <path d="M324.964947,1399.03531 C329.165909,1403.24063 329.108253,1409.98281 324.99026,1414.12364 C324.982525,1414.13208 324.973385,1414.14122 324.964947,1414.14966 L320.239946,1418.87465 C316.072523,1423.04206 309.292357,1423.0415 305.125567,1418.87465 C300.958144,1414.70794 300.958144,1407.92702 305.125567,1403.76031 L307.734583,1401.15129 C308.426459,1400.45942 309.617975,1400.91926 309.653693,1401.89703 C309.699256,1403.1431 309.815456,1403.86412 310.227769,1405.07307 C310.367409,1405.48243 310.267636,1405.93524 309.961776,1406.2411 L309.041597,1407.16128 C306.047576,1410.19674 306.619371,1413.40519 308.570544,1415.39503 C310.540982,1417.40449 314.838214,1417.16506 316.823769,1415.17951 L321.54877,1410.45522 C323.53095,1408.47304 323.40289,1404.59379 321.429007,1402.61991 C321.16878,1402.36018 320.906655,1402.15838 320.701905,1402.0174 C320.408196,1401.81571 320.227087,1401.48707 320.213444,1401.13104 C320.1856,1400.38805 320.44885,1399.62242 321.03596,1399.03531 L322.074681,1397.94786 C322.462876,1397.55967 323.071853,1397.512 323.521994,1397.82615 C324.037503,1398.18612 324.520348,1398.59073 324.964947,1399.03531 Z M319.760063,1389.12535 L315.035062,1393.85034 C315.026624,1393.85878 315.017484,1393.86792 315.009749,1393.87636 C310.891826,1398.01719 310.8341,1404.75937 315.035062,1408.96469 C315.479634,1409.40925 315.962457,1409.81384 316.477945,1410.17378 C316.928086,1410.48793 317.537133,1410.44019 317.925258,1410.05207 L319.405618,1408.57164 C319.992727,1407.98453 320.216806,1407.782 320.188962,1407.03901 C320.175319,1406.68298 319.994211,1406.35434 319.700501,1406.15265 C319.495751,1406.01167 319.282447,1405.758 318.973399,1405.55014 C316.477945,1403.87174 315.943078,1399.578 317.925258,1397.59582 L323.235301,1392.35748 C325.220856,1390.37193 329.882921,1390.34303 331.970457,1392.78445 C334.057993,1395.22587 333.490051,1398.76475 331.317415,1400.84249 L330.117968,1401.82786 C329.812109,1402.13372 329.712335,1402.58653 329.851976,1402.99589 C330.264289,1404.20484 330.300683,1404.85683 330.346245,1406.1029 C330.382034,1407.08067 331.57348,1407.54051 332.265355,1406.84864 L334.874371,1404.23962 C339.041865,1400.07298 339.041865,1393.29206 334.874442,1389.12535 C330.707652,1384.9585 323.927486,1384.95794 319.760063,1389.12535 Z" id="Shape"></path>
        </g>
    </g>
</svg>