<?xml version="1.0" encoding="UTF-8"?>
<svg width="48px" height="50px" viewBox="0 0 48 50" version="1.1" xmlns="http://www.w3.org/2000/svg" xmlns:xlink="http://www.w3.org/1999/xlink">
    <!-- Generator: Sketch 57.1 (83088) - https://sketch.com -->
    <title>Shape</title>
    <desc>Created with Sketch.</desc>
    <g id="Page-1" stroke="none" stroke-width="1" fill="none" fill-rule="evenodd">
        <g id="Artboard" transform="translate(-697.000000, -1375.000000)" fill="#13818C" fill-rule="nonzero">
            <path d="M743.666614,1401.46154 L741.208185,1401.46154 C740.474823,1399.82692 739.408114,1398.38029 738.091396,1397.17067 L739.666458,1391 L736.999687,1391 C734.549591,1391 732.38284,1392.10337 730.916115,1393.80337 C730.282757,1393.71346 729.657733,1393.61538 728.999374,1393.61538 L718.33229,1393.61538 C711.882037,1393.61538 706.506827,1398.11058 705.265112,1404.07692 L701.664971,1404.07692 C700.431589,1404.07692 699.456551,1402.97356 699.706561,1401.72308 C699.889901,1400.79135 700.781603,1400.15385 701.748307,1400.15385 L701.831644,1400.15385 C702.106655,1400.15385 702.331663,1399.93317 702.331663,1399.66346 L702.331663,1398.02885 C702.331663,1397.75913 702.106655,1397.53846 701.831644,1397.53846 C699.456551,1397.53846 697.339801,1399.20577 697.03979,1401.51058 C696.673109,1404.30577 698.889862,1406.69231 701.664971,1406.69231 L704.998434,1406.69231 C704.998434,1410.95865 707.115184,1414.7101 710.331976,1417.09663 L710.331976,1423.69231 C710.331976,1424.41154 710.932,1425 711.665362,1425 L716.998904,1425 C717.732266,1425 718.33229,1424.41154 718.33229,1423.69231 L718.33229,1419.76923 L728.999374,1419.76923 L728.999374,1423.69231 C728.999374,1424.41154 729.599397,1425 730.332759,1425 L735.666301,1425 C736.399663,1425 736.999687,1424.41154 736.999687,1423.69231 L736.999687,1417.09663 C737.983059,1416.36923 738.858093,1415.51106 739.608122,1414.53846 L743.666614,1414.53846 C744.399977,1414.53846 745,1413.95 745,1413.23077 L745,1402.76923 C745,1402.05 744.399977,1401.46154 743.666614,1401.46154 Z M732,1404 C732.55,1404 733,1404.45 733,1405 C733,1405.55 732.55,1406 732,1406 C731.45,1406 731,1405.55 731,1405 C731,1404.45 731.45,1404 732,1404 Z M718,1383 C720.209139,1383 722,1384.79086 722,1387 C722,1389.20914 720.209139,1391 718,1391 C715.790861,1391 714,1389.20914 714,1387 C714,1384.79086 715.790861,1383 718,1383 Z M729,1383 C730.656854,1383 732,1384.34315 732,1386 C732,1387.65685 730.656854,1389 729,1389 C727.343146,1389 726,1387.65685 726,1386 C726,1384.34315 727.343146,1383 729,1383 Z M722.5,1375 C724.432997,1375 726,1376.567 726,1378.5 C726,1380.433 724.432997,1382 722.5,1382 C720.567003,1382 719,1380.433 719,1378.5 C719,1376.567 720.567003,1375 722.5,1375 Z" id="Shape"></path>
        </g>
    </g>
</svg>