<?xml version="1.0" encoding="UTF-8"?>
<svg width="692px" height="402px" viewBox="0 0 692 402" version="1.1" xmlns="http://www.w3.org/2000/svg" xmlns:xlink="http://www.w3.org/1999/xlink">
    <!-- Generator: Sketch 57.1 (83088) - https://sketch.com -->
    <title>hero-illustration</title>
    <desc>Created with Sketch.</desc>
    <defs>
        <linearGradient x1="50.0078116%" y1="100.00269%" x2="50.0078116%" y2="-0.106605991%" id="linearGradient-1">
            <stop stop-color="#808080" stop-opacity="0.25" offset="0%"></stop>
            <stop stop-color="#808080" stop-opacity="0.12" offset="54%"></stop>
            <stop stop-color="#808080" stop-opacity="0.1" offset="100%"></stop>
        </linearGradient>
    </defs>
    <g id="Page-1" stroke="none" stroke-width="1" fill="none" fill-rule="evenodd">
        <g id="Artboard" transform="translate(-142.000000, -589.000000)">
            <g id="hero-illustration" transform="translate(142.000000, 589.000000)">
                <g id="tree" opacity="0.1" transform="translate(444.000000, 0.000000)" fill-rule="nonzero">
                    <ellipse id="Oval" fill="#3F3D56" cx="64.7251415" cy="378.458532" rx="13.4415566" ry="17.5051376"></ellipse>
                    <path d="M75.3615566,303.569725 C77.2447365,300.317411 78.2215079,296.623894 78.1910377,292.870459 C78.1910377,283.182385 72.173066,275.365321 64.7494811,275.365321 C57.3258962,275.365321 51.3140094,283.20055 51.3140094,292.870459 C51.2761399,296.621668 52.2444707,300.31504 54.1191509,303.569725 C50.3789452,310.214906 50.3789452,318.317021 54.1191509,324.962202 C50.3790445,331.609565 50.3790445,339.713371 54.1191509,346.360734 C52.2444707,349.615419 51.2761399,353.30879 51.3140094,357.06 C51.3140094,366.748073 57.3319811,374.565138 64.7494811,374.565138 C72.1669811,374.565138 78.1910377,366.729908 78.1910377,357.06 C78.2289073,353.30879 77.2605765,349.615419 75.3858962,346.360734 C79.1260026,339.713371 79.1260026,331.609565 75.3858962,324.962202 C79.1261019,318.317021 79.1261019,310.214906 75.3858962,303.569725 L75.3615566,303.569725 Z" id="Path" fill="#3F3D56"></path>
                    <ellipse id="Oval" fill="#3F3D56" cx="64.7251415" cy="271.477982" rx="13.4415566" ry="17.5051376"></ellipse>
                    <ellipse id="Oval" fill="#3F3D56" cx="64.7251415" cy="250.07945" rx="13.4415566" ry="17.5051376"></ellipse>
                    <path d="M115.035142,103.65633 C116.869462,101.329175 118.540674,98.879167 120.036934,96.3236697 L84.7444811,90.553211 L122.939434,90.8377982 C130.337412,74.8053914 130.777551,56.4496742 124.156415,40.0844037 L72.9093396,66.5207339 L120.176887,31.9706422 C108.103491,11.2368505 85.4109298,-1.05828914 61.3578955,0.101709529 C37.3048611,1.2617082 15.9134779,15.6828714 5.91155086,37.4812832 C-4.0903762,59.2796951 -1.03033501,84.8102471 13.8431604,103.65633 C10.9830358,107.276489 8.52273796,111.192431 6.50476415,115.336514 L52.3423585,139.035963 L3.46839623,122.687339 C-3.51837915,143.188935 0.372708641,165.815043 13.8127358,182.838165 C-6.94465455,209.098389 -3.93323138,246.823961 20.729991,269.494006 C45.3932135,292.164051 83.4242394,292.164051 108.087462,269.494006 C132.750684,246.823961 135.762107,209.098389 115.004717,182.838165 C133.374055,159.600005 133.374055,126.87027 115.004717,103.63211 L115.035142,103.65633 Z" id="Path" fill="#13818C"></path>
                    <path d="M0.0659319954,143.262385 C0.0446091404,157.629826 4.89895381,171.583723 13.8431604,182.862385 C-6.91423002,209.122609 -3.90280685,246.848181 20.7604156,269.518226 C45.423638,292.188271 83.4546639,292.188271 108.117886,269.518226 C132.781109,246.848181 135.792532,209.122609 115.035142,182.862385 C123.663538,171.963303 0.0659319954,136.068991 0.0659319954,143.262385 Z" id="Path" fill="#000000"></path>
                </g>
                <g id="tree" opacity="0.1" transform="translate(94.000000, 136.000000)" fill-rule="nonzero">
                    <ellipse id="Oval" fill="#3F3D56" cx="39.3845385" cy="230.7591" rx="8.16738462" ry="10.648"></ellipse>
                    <path d="M45.8807692,185.20865 C47.0208689,183.228323 47.6102972,180.981295 47.5883846,178.69885 C47.5883846,172.81825 43.9422308,168.05085 39.4149231,168.05085 C34.8876154,168.05085 31.2475385,172.81825 31.2475385,178.69885 C31.2237775,180.98074 31.8110988,183.227732 32.9490769,185.20865 C30.6809053,189.252626 30.6809053,194.178224 32.9490769,198.2222 C30.6809053,202.266176 30.6809053,207.191774 32.9490769,211.23575 C31.8102252,213.214113 31.2228021,215.459406 31.2475385,217.7395 C31.2475385,223.62615 34.8936923,228.39355 39.4149231,228.39355 C43.9361538,228.39355 47.5883846,223.62615 47.5883846,217.7395 C47.6112733,215.45885 47.0217427,213.21352 45.8807692,211.23575 C48.1560302,207.193614 48.1560302,202.264336 45.8807692,198.2222 C48.1560302,194.180064 48.1560302,189.250786 45.8807692,185.20865 L45.8807692,185.20865 Z" id="Path" fill="#3F3D56"></path>
                    <ellipse id="Oval" fill="#3F3D56" cx="39.3845385" cy="165.6853" rx="8.16738462" ry="10.648"></ellipse>
                    <ellipse id="Oval" fill="#3F3D56" cx="39.3845385" cy="152.67175" rx="8.16738462" ry="10.648"></ellipse>
                    <path d="M8.81153846,63.60365 C7.69610645,62.1892975 6.68083608,60.699419 5.77307692,59.1448 L27.2428462,55.6358 L4.02292308,55.81125 C-0.46968308,46.0643826 -0.739960633,34.9074019 3.27546154,24.95625 L34.4075385,41.0553 L5.68192308,20.0013 C13.0253597,7.39839929 26.8181978,-0.0723273584 41.4356587,0.635714585 C56.0531196,1.34375653 69.0523449,10.1122397 75.1321946,23.3653388 C81.2120443,36.6184379 79.3564588,52.1413058 70.3221538,63.60365 C72.0609371,65.8026596 73.5564065,68.1819701 74.7826154,70.7003 L46.9138462,85.1235 L76.63,75.19545 C80.8699106,87.6700628 78.4973818,101.43257 70.3221538,111.78585 C82.940491,127.758781 81.1089031,150.704399 66.1149339,164.492719 C51.1209647,178.28104 28.0005737,178.28104 13.0066045,164.492719 C-1.98736468,150.704399 -3.8189525,127.758781 8.79938462,111.78585 C-2.36679354,97.6487709 -2.36679354,77.7407291 8.79938462,63.60365 L8.81153846,63.60365 Z" id="Path" fill="#13818C"></path>
                    <path d="M78.6967635,87.69475 C78.7091252,96.4347587 75.7585399,104.923276 70.3221538,111.78585 C82.940491,127.758781 81.1089031,150.704399 66.1149339,164.492719 C51.1209647,178.28104 28.0005737,178.28104 13.0066045,164.492719 C-1.98736468,150.704399 -3.8189525,127.758781 8.79938462,111.78585 C3.555,105.1853 78.6967635,83.3206 78.6967635,87.69475 Z" id="Path" fill="#000000"></path>
                </g>
                <g id="tree" opacity="0.1" transform="translate(265.000000, 63.000000)" fill-rule="nonzero">
                    <ellipse id="Oval" fill="#3F3D56" cx="52.0812139" cy="308.356124" rx="10.9187861" ry="14.2446629"></ellipse>
                    <path d="M60.7239884,247.409532 C62.2456814,244.75925 63.0313003,241.752749 63,238.699419 C63,230.836124 58.1445087,224.454757 52.0751445,224.454757 C46.0057803,224.454757 41.150289,230.836124 41.150289,238.699419 C41.1181877,241.753629 41.9060894,244.760847 43.4323699,247.409532 C40.3901496,252.818366 40.3901496,259.414874 43.4323699,264.823708 C40.3900479,270.230362 40.3900479,276.825181 43.4323699,282.231835 C41.9060894,284.88052 41.1181877,287.887738 41.150289,290.941948 C41.150289,298.805243 46.0421965,305.18661 52.0751445,305.18661 C58.1080925,305.18661 63,298.805243 63,290.941948 C63.0313003,287.888618 62.2456814,284.882117 60.7239884,282.231835 C63.7592146,276.823336 63.7592146,270.232207 60.7239884,264.823708 C63.7591188,259.413031 63.7591188,252.820209 60.7239884,247.409532 L60.7239884,247.409532 Z" id="Path" fill="#3F3D56"></path>
                    <ellipse id="Oval" fill="#3F3D56" cx="52.0812139" cy="221.291292" rx="10.9187861" ry="14.2446629"></ellipse>
                    <ellipse id="Oval" fill="#3F3D56" cx="52.0812139" cy="203.877116" rx="10.9187861" ry="14.2446629"></ellipse>
                    <path d="M11.2283237,84.7179401 C9.73590033,82.8261732 8.37713868,80.8333744 7.16184971,78.7539326 L35.8517341,74.0601498 L4.82514451,74.29 C-1.19153582,61.2436506 -1.55373126,46.3042141 3.82369942,32.9835019 L45.4595376,54.5047378 L7.05867052,26.3783333 C16.8380858,9.4413367 35.300232,-0.623288274 54.8858093,0.305404904 C74.4713866,1.23409808 91.8912946,13.0001495 100.012977,30.785966 C108.134659,48.5717825 105.594202,69.3905062 93.4317919,84.7179401 C95.755141,87.6651057 97.7533602,90.8529877 99.3919075,94.2264794 L62.150289,113.5097 L101.862139,100.202584 C107.529614,116.891543 104.358677,135.304052 93.4317919,149.154625 C110.29642,170.524995 107.848304,201.223999 87.8083775,219.671403 C67.7684509,238.118807 36.8673873,238.118807 16.8274606,219.671403 C-3.21246603,201.223999 -5.66058157,170.524995 11.2040462,149.154625 C-3.71790021,130.240739 -3.71790021,103.607632 11.2040462,84.6937453 L11.2283237,84.7179401 Z" id="Path" fill="#13818C"></path>
                    <path d="M104.624514,116.951404 C104.64182,128.643527 100.698211,139.999261 93.4317919,149.17882 C110.29642,170.54919 107.848304,201.248194 87.8083775,219.695598 C67.7684509,238.143002 36.8673873,238.143002 16.8274606,219.695598 C-3.21246603,201.248194 -5.66058157,170.54919 11.2040462,149.17882 C4.19393064,140.311442 104.624514,111.096273 104.624514,116.951404 Z" id="Path" fill="#000000"></path>
                </g>
                <g id="footer-img" transform="translate(0.000000, 368.000000)" fill-rule="nonzero">
                    <path d="M692,16.9811973 C692,21.228042 661.577499,25.110165 611.279207,28.1083014 C602.131861,28.6461114 592.330266,29.1591946 581.935003,29.6413691 C572.953238,30.053484 563.539346,30.4429327 553.693327,30.809715 C544.15424,31.1558916 534.249662,31.4773413 523.979595,31.774064 C491.545889,32.7198679 455.689501,33.3998576 417.597768,33.7398524 C408.353496,33.8263966 398.986047,33.892335 389.495422,33.9376676 C379.609018,33.9830003 369.609535,34.003606 359.496971,33.9994849 C175.85944,33.9994849 27,26.389782 27,16.9997424 C27,7.60970288 175.85944,0 359.496971,0 C438.557914,0 511.161193,1.41561491 568.226099,3.76467023 L574.46568,4.02430266 L574.502027,4.02430266 C646.384423,7.1337101 692,11.8132756 692,16.9811973 Z" id="Path" fill="#3F3D56"></path>
                    <path d="M692,16.9811973 C692,21.228042 661.577499,25.110165 611.279207,28.1083014 C602.131861,28.6461114 592.330266,29.1591946 581.935003,29.6413691 C572.953238,30.053484 563.539346,30.4429327 553.693327,30.809715 C544.15424,31.1558916 534.249662,31.4773413 523.979595,31.774064 C491.545889,32.7198679 455.689501,33.3998576 417.597768,33.7398524 C408.353496,33.8263966 398.986047,33.892335 389.495422,33.9376676 C379.609018,33.9830003 369.609535,34.003606 359.496971,33.9994849 C175.85944,33.9994849 27,26.389782 27,16.9997424 C27,7.60970288 175.85944,0 359.496971,0 C438.557914,0 511.161193,1.41561491 568.226099,3.76467023 L574.46568,4.02430266 L574.502027,4.02430266 C646.384423,7.1337101 692,11.8132756 692,16.9811973 Z" id="Path" fill="#000000" opacity="0.15"></path>
                    <path d="M665,15.0182609 C665,18.5121739 634.577499,21.713913 584.279207,24.1486957 C575.137918,24.5930435 565.330266,25.0130435 554.941061,25.4086957 C545.955257,25.7495652 536.541365,26.0701449 526.699385,26.3704348 C517.160298,26.6544928 507.25572,26.9202899 496.985652,27.1678261 C464.545889,27.9469565 428.689501,28.5069565 390.597768,28.7869565 C381.361573,28.855942 371.994124,28.9086957 362.495422,28.9452174 C352.609018,28.9817391 342.611554,29 332.503029,29 C148.865498,29 0,22.7365217 0,15 C0,7.26347826 148.865498,1 332.503029,1 C411.557914,1 484.161193,2.1626087 541.226099,4.09826087 L547.46568,4.31130435 L547.508085,4.31130435 C619.414712,6.91043478 665,10.7391304 665,15.0182609 Z" id="Path" fill="#3F3D56"></path>
                </g>
                <g id="bush" transform="translate(631.000000, 268.000000)">
                    <path d="M11.7262683,113.849534 C14.221427,109.25033 11.3871206,103.615703 8.1288794,99.5101311 C4.87063824,95.404559 0.897764256,91.1424695 0.982551201,85.9111759 C1.10367541,78.40436 9.12209789,73.9676933 15.517456,69.9825192 C20.2738597,67.0290111 24.6609533,63.5250206 28.5867579,59.5440117 C30.2307625,58.0104632 31.5899768,56.2008918 32.6020254,54.1983401 C33.9283354,51.2606287 33.885942,47.9195839 33.8132674,44.704957 C33.5346818,33.9815076 33.0017352,23.2741112 32.2144279,12.582768" id="Path" stroke="#3F3D56" stroke-width="4"></path>
                    <path d="M44.3995231,11.9928177 C44.2144123,8.00654572 41.9975428,4.38913703 38.5189429,2.39709632 L35.8784352,7.58625055 L35.9571659,1.30147443 C34.6976267,0.935707505 33.3859889,0.779091922 32.0751351,0.837942089 C25.5735889,1.14088777 20.5500242,6.62527146 20.8545105,13.0878511 C21.1589967,19.5504307 26.6762386,24.5441186 33.1778116,24.241743 C39.6793846,23.9393673 44.7034359,18.455424 44.3995231,11.9928177 L44.3995231,11.9928177 Z" id="Path" fill="#13818C" fill-rule="nonzero"></path>
                    <path d="M23.3844732,91.2989869 C20.8358308,96.2213343 15.1672242,98.6967293 9.79606516,97.2328396 C4.42490614,95.7689499 0.819191591,90.7658727 1.1526852,85.2397945 C1.48617881,79.7137163 5.66773311,75.1749752 11.17643,74.359825 C16.685127,73.5446748 22.015379,76.6759051 23.953757,81.8658028 L16.5894052,87.8194844 L24.7047271,85.9412754 C24.7013503,87.8063489 24.2486387,89.6434942 23.3844732,91.2989869 Z" id="Path" fill="#13818C" fill-rule="nonzero"></path>
                    <path d="M17.5644551,68.5377431 C14.4419353,68.6832398 11.3891767,67.5896911 9.07785869,65.4977037 C6.76654072,63.4057163 5.3860283,60.4866855 5.24006707,57.3828675 C5.14837701,55.5479643 5.4971243,53.7177011 6.2575104,52.0432157 C7.68270724,48.8753459 10.4456002,46.4971051 13.8035485,45.5477431 L13.7369302,50.3636635 L16.4077189,45.1143102 L16.438,45.1143102 C20.6441855,44.9185959 24.6359032,46.9682681 26.9095117,50.4912351 C29.1831201,54.014202 29.393204,58.4752412 27.4606268,62.1939221 C25.5280496,65.9126031 21.7464158,68.3239697 17.5402303,68.5196834 L17.5644551,68.5377431 Z" id="Path" fill="#13818C" fill-rule="nonzero"></path>
                    <path d="M46.1739927,49.6171958 C41.915759,49.8982713 37.837065,47.8703532 35.5094676,44.3148164 C33.1818703,40.7592795 32.9686794,36.2311 34.9520392,32.4750256 C36.9353991,28.7189513 40.8057312,26.3212597 45.0717624,26.2058028 C47.2743385,26.0991662 49.4622685,26.6146927 51.3823336,27.6927182 L49.2989973,33.3634645 L53.5867942,29.275952 C55.8880991,31.3610164 57.2625812,34.2688805 57.4082629,37.3606784 C57.4619021,38.4450683 57.3599422,39.5315262 57.1054524,40.5873451 C55.9011971,45.6873369 51.4384836,49.373728 46.1739927,49.6171958 Z" id="Path" fill="#13818C" fill-rule="nonzero"></path>
                    <path d="M42.812796,15.1171461 C40.0935575,15.4121212 37.4530498,16.2549073 34.721699,16.4234645 C31.9903481,16.5920217 28.992524,15.9418724 27.2665041,13.8288874 C26.3338477,12.6971461 25.8735757,11.2583898 25.0862683,10.0182903 C24.3427532,8.8638919 23.3232324,7.9104609 22.1187253,7.24311622 C20.0534697,11.2968088 20.5327776,16.1719803 23.348504,19.7515306 C26.1642305,23.331081 30.8084205,24.969262 35.2642805,23.9546745 C39.7201404,22.940087 43.1838366,19.4557618 44.1512185,15.0148078 C43.7030589,15.0388874 43.2609556,15.0689869 42.812796,15.1171461 Z" id="Path" fill="#000000" fill-rule="nonzero" opacity="0.1"></path>
                    <path d="M46.1739927,49.6171958 C42.0432,49.8043111 38.1153756,47.8280145 35.8213601,44.4082378 C33.5273446,40.9884611 33.2020393,36.6244543 34.9639474,32.905952 C35.8976612,33.5349928 36.7014777,34.3360336 37.3319256,35.265753 C38.1737389,36.5239122 38.6824605,37.9807282 39.6696228,39.1365491 C41.4864859,41.2856535 44.6417715,41.983962 47.4821342,41.8575441 C50.3224968,41.7311262 53.0720163,40.9244595 55.9063227,40.653564 C56.2999764,40.6174446 56.6996863,40.593365 57.1175648,40.5813252 C55.914396,45.6878284 51.4448295,49.3782527 46.1739927,49.6171958 Z" id="Path" fill="#000000" fill-rule="nonzero" opacity="0.1"></path>
                    <path d="M17.5644551,68.5377431 C14.4419353,68.6832398 11.3891767,67.5896911 9.07785869,65.4977037 C6.76654072,63.4057163 5.3860283,60.4866855 5.24006707,57.3828675 C5.14837701,55.5479643 5.4971243,53.7177011 6.2575104,52.0432157 C7.22926209,52.686718 8.07311152,53.5030588 8.74661285,54.4511759 C9.66110061,55.7334147 10.2364406,57.2143102 11.3083898,58.4002306 C13.2948268,60.5974943 16.6378549,61.3740615 19.6477915,61.3018227 C22.5668848,61.2416237 25.3769664,60.5312754 28.2778912,60.3085391 C26.8048183,65.0193306 22.521983,68.3090619 17.5644551,68.5377431 L17.5644551,68.5377431 Z" id="Path" fill="#000000" fill-rule="nonzero" opacity="0.1"></path>
                    <path d="M23.3844732,91.2989869 C20.5362117,96.8630534 13.7986766,99.2293302 8.06606797,96.6789346 C2.33345937,94.1285391 -0.37988113,87.557637 1.89703896,81.7393849 C2.86728585,82.3740351 3.73857118,83.1467973 4.48304077,84.032967 C5.60343969,85.3934645 6.34229735,86.934559 7.63832636,88.1987381 C10.0608105,90.5464993 13.9367851,91.5157033 17.4009374,91.6060018 C19.3998212,91.6222293 21.3978944,91.5197083 23.3844732,91.2989869 L23.3844732,91.2989869 Z" id="Path" fill="#000000" fill-rule="nonzero" opacity="0.1"></path>
                </g>
                <g id="bush" transform="translate(21.000000, 263.000000)">
                    <path d="M45.6958785,113.023663 C43.2007198,108.42446 46.0350263,102.789833 49.2932674,98.6842605 C52.5515086,94.5786884 56.5243826,90.3165988 56.4395956,85.0853053 C56.3184714,77.5784894 48.3000489,73.1418227 41.9046908,69.1566486 C37.1482871,66.2031404 32.7611936,62.69915 28.8353889,58.7181411 C27.1913843,57.1845926 25.83217,55.3750212 24.8201215,53.3724695 C23.4938114,50.434758 23.5362049,47.0937132 23.6088794,43.8790864 C23.8874651,33.1556369 24.4204116,22.4482406 25.2077189,11.7568973" id="Path" stroke="#3F3D56" stroke-width="4"></path>
                    <path d="M13.0226237,11.1669471 C13.2077345,7.18067508 15.424604,3.56326638 18.903204,1.57122567 L21.5437117,6.7603799 L21.4649809,0.47560378 C22.7245201,0.109836858 24.0361579,-0.0467787251 25.3470118,0.0120714418 C31.8485579,0.31501712 36.8721226,5.79940081 36.5676364,12.2619804 C36.2631501,18.7245601 30.7459082,23.718248 24.2443352,23.4158723 C17.7427623,23.1134966 12.7187109,17.6295534 13.0226237,11.1669471 L13.0226237,11.1669471 Z" id="Path" fill="#13818C" fill-rule="nonzero"></path>
                    <path d="M34.0376736,90.4731162 C36.586316,95.3954637 42.2549226,97.8708586 47.6260817,96.4069689 C52.9972407,94.9430792 56.6029552,89.940002 56.2694616,84.4139238 C55.935968,78.8878457 51.7544137,74.3491045 46.2457168,73.5339543 C40.7370199,72.7188041 35.4067678,75.8500345 33.4683898,81.0399321 L40.8327416,86.9936137 L32.7174197,85.1154048 C32.7207965,86.9804782 33.1735081,88.8176235 34.0376736,90.4731162 L34.0376736,90.4731162 Z" id="Path" fill="#13818C" fill-rule="nonzero"></path>
                    <path d="M39.8576917,67.7118724 C42.9802115,67.8573692 46.0329702,66.7638205 48.3442881,64.6718331 C50.6556061,62.5798457 52.0361185,59.6608148 52.1820798,56.5569968 C52.2737698,54.7220937 51.9250225,52.8918305 51.1646364,51.2173451 C49.7394396,48.0494752 46.9765467,45.6712344 43.6185983,44.7218724 L43.6852167,49.5377928 L41.0144279,44.2884396 L41.0144279,44.2884396 C34.5122288,43.985892 28.9944124,48.9800999 28.6900399,55.4433152 C28.3856674,61.9065305 33.4099985,67.3912651 39.9121976,67.6938127 L39.8576917,67.7118724 Z" id="Path" fill="#13818C" fill-rule="nonzero"></path>
                    <path d="M11.2481541,48.7913252 C15.5063878,49.0724007 19.5850818,47.0444826 21.9126792,43.4889457 C24.2402765,39.9334088 24.4534674,35.4052293 22.4701076,31.649155 C20.4867478,27.8930806 16.6164156,25.4953891 12.3503844,25.3799321 C10.1579711,25.2790183 7.98133207,25.7943572 6.07009426,26.8668476 L8.15343062,32.5375938 L3.83535265,28.4681411 C1.53838511,30.54884 0.164301154,33.4493681 0.0138839294,36.5348078 C-0.0397553198,37.6191977 0.0622046613,38.7056556 0.316694446,39.7614744 C1.52094976,44.8614662 5.98366323,48.5478574 11.2481541,48.7913252 L11.2481541,48.7913252 Z" id="Path" fill="#13818C" fill-rule="nonzero"></path>
                    <path d="M14.6093508,14.2912754 C17.3285893,14.5862505 19.969097,15.4290366 22.7004478,15.5975938 C25.4317987,15.766151 28.4296228,15.1160018 30.1556428,13.0030167 C31.0882992,11.8712754 31.5485711,10.4325192 32.3358785,9.1924197 C33.0793937,8.03802125 34.0989144,7.08459025 35.3034216,6.41724557 C37.3686772,10.4709382 36.8893692,15.3461097 34.0736428,18.92566 C31.2579164,22.5052103 26.6137263,24.1433914 22.1578664,23.1288039 C17.7020064,22.1142164 14.2383103,18.6298912 13.2709284,14.1889371 C13.7190879,14.2130167 14.1611913,14.2431162 14.6093508,14.2912754 Z" id="Path" fill="#000000" fill-rule="nonzero" opacity="0.1"></path>
                    <path d="M11.2481541,48.7913252 C15.3789468,48.9784405 19.3067712,47.0021439 21.6007867,43.5823671 C23.8948022,40.1625904 24.2201076,35.7985836 22.4581994,32.0800814 C21.5244856,32.7091222 20.7206691,33.5101629 20.0902212,34.4398824 C19.248408,35.6980416 18.7396863,37.1548575 17.752524,38.3106784 C15.9356609,40.4597829 12.7803753,41.1580913 9.94001267,41.0316734 C7.09965002,40.9052555 4.35013053,40.0985889 1.51582409,39.8276933 C1.12217042,39.7915739 0.722460539,39.7674943 0.304582026,39.7554545 C1.50775085,44.8619578 5.97731728,48.552382 11.2481541,48.7913252 L11.2481541,48.7913252 Z" id="Path" fill="#000000" fill-rule="nonzero" opacity="0.1"></path>
                    <path d="M39.8576917,67.7118724 C42.9802115,67.8573692 46.0329702,66.7638205 48.3442881,64.6718331 C50.6556061,62.5798457 52.0361185,59.6608148 52.1820798,56.5569968 C52.2737698,54.7220937 51.9250225,52.8918305 51.1646364,51.2173451 C50.1928847,51.8608473 49.3490353,52.6771881 48.675534,53.6253053 C47.7610462,54.9075441 47.1857062,56.3884396 46.113757,57.57436 C44.12732,59.7716237 40.7842919,60.5481908 37.7743554,60.475952 C34.855262,60.415753 32.0451804,59.7054048 29.1442556,59.4826685 C30.6173285,64.19346 34.9001638,67.4831912 39.8576917,67.7118724 L39.8576917,67.7118724 Z" id="Path" fill="#000000" fill-rule="nonzero" opacity="0.1"></path>
                    <path d="M34.0376736,90.4731162 C36.8859352,96.0371827 43.6234702,98.4034595 49.3560789,95.853064 C55.0886875,93.3026684 57.802028,86.7317664 55.5251079,80.9135142 C54.554861,81.5481645 53.6835756,82.3209267 52.9391061,83.2070963 C51.8187071,84.5675938 51.0798495,86.1086884 49.7838205,87.3728675 C47.3613363,89.7206287 43.4853617,90.6898326 40.0212094,90.7801311 C38.0223256,90.7963587 36.0242524,90.6938376 34.0376736,90.4731162 L34.0376736,90.4731162 Z" id="Path" fill="#000000" fill-rule="nonzero" opacity="0.1"></path>
                </g>
                <g id="bush" transform="translate(275.000000, 269.000000)">
                    <path d="M10.75857,113.848436 C13.2568678,109.21567 10.4189955,103.539925 7.15665507,99.4043936 C3.89431465,95.2688617 -0.0835576945,90.9756702 0.00133592253,85.7062021 C0.122612518,78.1446063 8.15112316,73.6755638 14.5545274,69.6613085 C19.3169153,66.6862476 23.7095283,63.1566873 27.6402721,59.1466276 C29.2863451,57.6018883 30.6472694,55.7791118 31.6605912,53.7619468 C32.98857,50.8027978 32.9461232,47.4373723 32.8733572,44.1992872 C32.594421,33.3975851 32.060804,22.6120531 31.2725061,11.8426914" id="Path" stroke="#3F3D56" stroke-width="4"></path>
                    <path d="M43.4729317,11.2484361 C43.287588,7.23307494 41.0679294,3.58926877 37.5849529,1.58269145 L34.9411232,6.80971272 L35.0199529,0.479074425 C33.7588291,0.110638375 32.4455411,-0.0471200856 31.1330381,0.0121595313 C24.6233122,0.317315908 19.5934272,5.84172104 19.8982965,12.3514603 C20.2031658,18.8611996 25.7273491,23.8913282 32.2371019,23.586746 C38.7468546,23.2821638 43.7772268,17.7582023 43.4729317,11.2484361 L43.4729317,11.2484361 Z" id="Path" fill="#13818C" fill-rule="nonzero"></path>
                    <path d="M22.4314423,91.1333297 C19.8795934,96.0915973 14.203855,98.585056 8.82593836,97.1104838 C3.44802176,95.6359116 -0.162229214,90.5963252 0.171683973,85.0299214 C0.505597161,79.4635175 4.69241236,74.8916556 10.2080399,74.0705569 C15.7236674,73.2494583 21.0606256,76.4035383 23.0014423,81.6313085 L15.6278253,87.6284361 L23.7533572,85.7365212 C23.7499762,87.6152048 23.296695,89.4657564 22.4314423,91.1333297 Z" id="Path" fill="#13818C" fill-rule="nonzero"></path>
                    <path d="M16.6041019,68.2059893 C13.4776536,68.3525478 10.4210542,67.2510191 8.10682829,65.1437658 C5.7926024,63.0365124 4.41035314,60.0961804 4.26420826,56.9697127 C4.17240285,55.1214196 4.52158891,53.2778004 5.28293167,51.5910957 C6.70992158,48.4001088 9.47629056,46.0045132 12.8384636,45.0482234 L12.7717615,49.8992872 L15.4459104,44.6116276 L15.4459104,44.6116276 C21.95629,44.3068722 27.4810486,49.3375246 27.785804,55.8479042 C28.0905594,62.3582838 23.059907,67.8830424 16.5495274,68.1877978 L16.6041019,68.2059893 Z" id="Path" fill="#13818C" fill-rule="nonzero"></path>
                    <path d="M45.2496338,49.1473723 C40.9860427,49.4304989 36.9022172,47.3877824 34.5716914,43.8062995 C32.2411657,40.2248167 32.0277066,35.6635935 34.0135617,31.8801098 C35.9994169,28.0966261 39.8746184,25.6814377 44.1460168,25.5651383 C46.351364,25.4577235 48.5420467,25.977012 50.4645274,27.0629042 L48.37857,32.7750319 L52.6717615,28.6576914 C54.9759617,30.7579713 56.352173,33.687055 56.4980381,36.8014149 C56.5517448,37.8937179 56.4496565,38.9881041 56.1948466,40.0516276 C54.9890761,45.1888358 50.520748,48.9021279 45.2496338,49.1473723 L45.2496338,49.1473723 Z" id="Path" fill="#13818C" fill-rule="nonzero"></path>
                    <path d="M41.8842083,14.3955638 C39.1615487,14.6926914 36.5177189,15.5416276 33.7829317,15.7114149 C31.0481444,15.8812021 28.0465487,15.2263085 26.3183572,13.0979042 C25.3845274,11.9579042 24.9236763,10.5086489 24.1353785,9.25949996 C23.3909279,8.09667746 22.3701245,7.13628895 21.1641019,6.46407442 C19.0962479,10.5473482 19.5761589,15.4580955 22.3954279,19.0637671 C25.2146968,22.6694386 29.8647298,24.319574 34.3261958,23.2975827 C38.7876617,22.2755915 42.2557157,18.7658399 43.2243146,14.2924787 C42.7755912,14.316734 42.3329317,14.3470531 41.8842083,14.3955638 Z" id="Path" fill="#000000" fill-rule="nonzero" opacity="0.1"></path>
                    <path d="M45.2496338,49.1473723 C41.1136441,49.3358531 37.1808779,47.3451347 34.8839763,43.9004027 C32.5870746,40.4556707 32.26136,36.0598182 34.0254849,32.3141808 C34.9603734,32.9478119 35.7652012,33.7546981 36.3964423,34.6912021 C37.2393146,35.9585425 37.7486763,37.4259893 38.7370806,38.5902446 C40.5562295,40.7550319 43.7154849,41.4584361 46.559421,41.3310957 C49.4033572,41.2037553 52.1563359,40.3912021 54.9942083,40.1183297 C55.3883572,40.0819468 55.78857,40.0576914 56.2069742,40.0455638 C55.0022917,45.1893309 50.527102,48.9066855 45.2496338,49.1473723 L45.2496338,49.1473723 Z" id="Path" fill="#000000" fill-rule="nonzero" opacity="0.1"></path>
                    <path d="M16.6041019,68.2059893 C13.4776536,68.3525478 10.4210542,67.2510191 8.10682829,65.1437658 C5.7926024,63.0365124 4.41035314,60.0961804 4.26420826,56.9697127 C4.17240285,55.1214196 4.52158891,53.2778004 5.28293167,51.5910957 C6.25590593,52.2392938 7.10081704,53.0615917 7.77516571,54.0166276 C8.69080401,55.3082234 9.26686784,56.7999255 10.3401657,57.9945 C12.3291019,60.2077978 15.6763359,60.9900319 18.6900593,60.9172659 C21.7037827,60.8445 24.4264423,60.1410957 27.3310168,59.916734 C25.8560906,64.6619018 21.5678669,67.9756394 16.6041019,68.2059893 L16.6041019,68.2059893 Z" id="Path" fill="#000000" fill-rule="nonzero" opacity="0.1"></path>
                    <path d="M22.4314423,91.1333297 C19.5795973,96.7379992 12.8335855,99.1215435 7.09376462,96.5525368 C1.3539437,93.9835302 -1.36281051,87.364678 0.91697422,81.503968 C1.8884418,82.1432495 2.76082331,82.9216508 3.50622954,83.8142872 C4.62803805,85.1847127 5.36782528,86.7370531 6.66548486,88.0104574 C9.09101677,90.375351 12.9718678,91.3516276 16.4403785,91.4425851 C18.4417771,91.458931 20.4423641,91.3556619 22.4314423,91.1333297 L22.4314423,91.1333297 Z" id="Path" fill="#000000" fill-rule="nonzero" opacity="0.1"></path>
                </g>
                <g id="coin" transform="translate(374.000000, 149.000000)">
                    <circle id="Oval" fill="#3F3D56" fill-rule="nonzero" cx="115.5" cy="114.5" r="114.5"></circle>
                    <path d="M114.058651,0 C67.9402631,-0.0231401392 26.3512395,27.8649917 8.6918456,70.6552763 C-8.96754832,113.445561 0.782042305,162.707212 33.3926712,195.46087 C66.0033001,228.214528 115.049834,238.00688 157.653262,220.270032 C200.25669,202.533185 228.023039,160.761753 228,114.441092 C227.968536,51.2501186 176.973681,0.0316020029 114.058651,0 L114.058651,0 Z M114.28934,213.346835 C59.7981793,213.346835 15.6243655,168.961819 15.6243655,114.210127 C15.6243655,59.4584341 59.7981793,15.0734177 114.28934,15.0734177 C168.780501,15.0734177 212.954315,59.4584341 212.954315,114.210127 C212.954315,140.502817 202.559285,165.718626 184.056013,184.310366 C165.552741,202.902105 140.456918,213.346835 114.28934,213.346835 Z" id="Shape" fill="#000000" fill-rule="nonzero" opacity="0.1"></path>
                    <g id="atom" transform="translate(45.000000, 45.000000)">
                        <ellipse id="Oval" fill="#13818C" cx="71" cy="71" rx="46.7556573" ry="48.1785714"></ellipse>
                        <path d="M71,142 C80.898548,142 87.4276634,110.671492 87.4276634,71 C87.4276634,31.3285084 80.898548,0 71,0 C61.101452,0 54.5723366,31.3285084 54.5723366,71 C54.5723366,110.671492 61.101452,142 71,142 Z M71,137.942857 C68.6459535,137.942857 65.3078785,131.168233 62.8471757,119.361097 C60.1992269,106.655504 58.6792525,89.4123024 58.6792525,71 C58.6792525,52.5876976 60.1992269,35.3444959 62.8471757,22.6389025 C65.3078785,10.8317671 68.6459535,4.05714286 71,4.05714286 C73.3540465,4.05714286 76.6921215,10.8317671 79.1528243,22.6389025 C81.8007731,35.3444959 83.3207475,52.5876976 83.3207475,71 C83.3207475,89.4123024 81.8007731,106.655504 79.1528243,119.361097 C76.6921215,131.168233 73.3540465,137.942857 71,137.942857 Z" id="Oval" fill="#E2EEEF" fill-rule="nonzero"></path>
                        <path d="M87.407881,69.7748923 C87.2753413,29.5872586 80.6241485,-2.22762826 70.7760805,-2.26159072 C60.9029357,-2.29558502 54.4595197,29.4836887 54.592119,69.6893934 C54.7246587,109.877027 61.3758515,141.691914 71.2239195,141.725876 C81.0970643,141.759871 87.5404803,109.980597 87.407881,69.7748923 Z M62.9393945,118.731411 C60.2439341,105.83812 58.6633858,88.3470691 58.601807,69.6756303 C58.5402292,51.0044968 60.0053992,33.524433 62.6156862,20.6503575 C65.0453383,8.6671828 68.3613225,1.82077238 70.7625369,1.82903916 C73.1813946,1.83738173 76.5493027,8.72047111 79.0606055,20.7328749 C81.7560659,33.6261661 83.3366142,51.1172166 83.398193,69.7886555 C83.4597708,88.4597889 81.9946008,105.939853 79.3843138,118.813928 C76.9546617,130.797103 73.6386774,137.643513 71.2374631,137.635247 C68.8186054,137.626904 65.4506973,130.743815 62.9393945,118.731411 Z" id="Oval" fill="#E2EEEF" fill-rule="nonzero" transform="translate(71.000000, 69.732143) rotate(-240.000000) translate(-71.000000, -69.732143) "></path>
                        <path d="M87.407881,69.6893934 C87.5404803,29.4836887 81.0970643,-2.29558502 71.2239195,-2.26159072 C61.3758515,-2.22762826 54.7246587,29.5872586 54.592119,69.7748923 C54.4595197,109.980597 60.9029357,141.759871 70.7760805,141.725876 C80.6241485,141.691914 87.2753413,109.877027 87.407881,69.6893934 Z M62.6156862,118.813928 C60.0053992,105.939853 58.5402292,88.4597889 58.601807,69.7886555 C58.6633858,51.1172166 60.2439341,33.6261661 62.9393945,20.7328749 C65.4506973,8.72047111 68.8186054,1.83738173 71.2374631,1.82903916 C73.6386775,1.82077238 76.9546617,8.6671828 79.3843138,20.6503575 C81.9946008,33.524433 83.4597708,51.0044968 83.398193,69.6756303 C83.3366142,88.3470691 81.7560659,105.83812 79.0606055,118.731411 C76.5493027,130.743815 73.1813946,137.626904 70.7625369,137.635247 C68.3613225,137.643513 65.0453383,130.797103 62.6156862,118.813928 Z" id="Oval" fill="#E2EEEF" fill-rule="nonzero" transform="translate(71.000000, 69.732143) rotate(-120.000000) translate(-71.000000, -69.732143) "></path>
                        <ellipse id="Oval" fill="#E2EEEF" cx="26.7716756" cy="55.7857143" rx="5.05466565" ry="5.07142857"></ellipse>
                        <ellipse id="Oval" fill="#E2EEEF" cx="105.118993" cy="38.0357143" rx="5.05466565" ry="5.07142857"></ellipse>
                        <ellipse id="Oval" fill="#E2EEEF" cx="62.1543351" cy="116.642857" rx="5.05466565" ry="5.07142857"></ellipse>
                        <ellipse id="Oval" fill="#E2EEEF" cx="72.2636664" cy="71" rx="7.58199847" ry="7.60714286"></ellipse>
                    </g>
                </g>
                <g id="bitcoin-coin" transform="translate(230.000000, 119.000000)" fill-rule="nonzero">
                    <g id="coin">
                        <circle id="Oval" fill="#3F3D56" cx="59.5" cy="58.5" r="58.5"></circle>
                        <path d="M59.02984,0 C35.5660988,-0.0118226912 14.406771,14.2366988 5.42216706,36.098984 C-3.56243687,57.9612692 1.39788117,83.1298855 17.9892538,99.8642872 C34.5806263,116.598689 59.5341263,121.601768 81.2095543,112.539711 C102.884982,103.477653 117.011722,82.1359176 117,58.4699028 C116.983992,26.1845584 91.0392412,0.0161460015 59.02984,0 L59.02984,0 Z M59.1472081,109.002532 C31.4236351,109.002532 8.94923858,86.3254709 8.94923858,58.3518987 C8.94923858,30.3783266 31.4236351,7.70126582 59.1472081,7.70126582 C86.8707812,7.70126582 109.345178,30.3783266 109.345178,58.3518987 C109.345178,71.7852818 104.056478,84.6684685 94.6425328,94.1673047 C85.2285874,103.666141 72.4605374,109.002532 59.1472081,109.002532 Z" id="Shape" fill="#000000" opacity="0.1"></path>
                    </g>
                    <g id="bitcoin" transform="translate(37.000000, 29.000000)">
                        <path d="M45.2677864,33.1071392 C44.609051,31.5669608 43.5945986,30.2142823 41.5656937,29.0758896 C40.5170506,28.4731809 39.3907005,28.0223933 38.2193182,27.736604 C39.0074388,27.3643561 39.7323157,26.8670754 40.3667954,26.2633899 C41.2995107,25.415801 42.0064686,24.3424122 42.4220497,23.1428546 C42.8045908,21.9238367 42.9609503,20.6431659 42.8831644,19.3660693 C42.7382427,17.1160695 42.3034773,14.933034 41.1441031,13.3660699 C39.9847289,11.7991058 38.3510653,10.5937488 36.1904134,9.74999891 C34.5304003,9.10714184 32.8308631,8.70535617 30.1959217,8.55803476 L30.1959217,0 L24.926039,3.34821391 L24.926039,8.57142761 L20.7101328,8.57142761 L20.7101328,3.0803568 L15.308503,0 L15.308503,8.57142761 L3.83333333,8.57142761 L7.52225125,15 C8.66186339,15.0013376 9.43390121,15.1084805 9.82782495,15.308034 C10.1955527,15.4680221 10.4979303,15.7517616 10.6841809,16.1116053 C10.8554521,16.4464267 10.9345003,17.2366052 10.9345003,18.4553551 L10.9345003,41.6517811 C10.9345003,42.8571381 10.8554521,43.6339237 10.6841809,43.9821379 C10.5129097,44.3303522 10.4206868,44.6383879 10.0122708,44.8258946 C9.60385493,45.0134012 9.59068023,45 8.45765544,45 L8.44448073,45 L3.83333333,51.4285724 L15.2953283,51.4285724 L15.2953283,60 L20.6969581,60 L20.6969581,51.4285724 L24.9128643,51.4285724 L24.9128643,60 L30.182747,60 L30.182747,51.375001 C33.6081708,51.2008938 36.0454916,50.7455367 38.0085229,49.9955368 C40.5512413,49.0312512 42.5010979,47.6250014 43.8976169,45.7767873 C45.2941358,43.9285732 45.8606482,41.1026807 45.9792205,38.9196452 C46.0714409,36.9776704 45.8606482,34.4732037 45.2677864,33.1071392 Z M20.503876,15.938473 L20.5051902,15.938473 L20.5051902,15.7642517 L24.1798529,15.7642517 C26.2471858,15.7642517 33.1365147,15.0778462 33.2508551,20.6856745 C33.3665097,26.2935029 24.1798529,26.0642644 24.1798529,26.0642644 L20.5051902,26.0642644 L20.5051902,25.6319861 L20.503876,25.6319861 L20.503876,15.938473 Z M20.503876,31.9672131 L24.7405787,31.9672131 C25.601159,31.9672131 28.561555,32.1024419 29.6392663,32.1529819 C30.0786529,32.1694579 30.5136252,32.2494628 30.9314606,32.3906567 C31.0837171,32.4439286 31.2280298,32.5040303 31.3842582,32.5709617 C32.0372839,32.7886667 32.6533062,33.1103611 33.2100123,33.5243928 C33.5729554,33.7716879 33.8922228,34.081213 34.1540026,34.4395773 C34.2674064,34.6012897 34.3717298,34.7695774 34.4664594,34.9436118 C34.7171192,35.3812486 34.9031929,35.8549669 35.0185548,36.3491713 C35.1447396,36.8264893 35.2101638,37.3187232 35.2131783,37.8134666 C35.2131783,38.8775394 35.0225267,39.7585753 34.5525175,40.5043824 C33.9156881,41.6053357 32.8710761,42.3852915 31.6953911,42.9357682 C28.6555568,44.3618169 24.7405787,44.2607368 24.7405787,44.2607368 L20.503876,44.2607368 L20.503876,31.9672131 Z" id="Shape" fill="#13818C"></path>
                        <path d="M41.434453,33.1071392 C40.7757177,31.5669608 39.7612653,30.2142823 37.7323604,29.0758896 C36.6837172,28.4731809 35.5573672,28.0223933 34.3859849,27.736604 C35.1741054,27.3643561 35.8989823,26.8670754 36.5334621,26.2633899 C37.4661774,25.415801 38.1731352,24.3424122 38.5887164,23.1428546 C38.9712575,21.9238367 39.127617,20.6431659 39.0498311,19.3660693 C38.9049093,17.1160695 38.470144,14.933034 37.3107698,13.3660699 C36.1513956,11.7991058 34.5177319,10.5937488 32.35708,9.74999891 C30.697067,9.10714184 28.9975298,8.70535617 26.3625884,8.55803476 L26.3625884,0 L21.0927057,3.34821391 L21.0927057,8.57142761 L16.8767995,8.57142761 L16.8767995,3.0803568 L11.4751697,0 L11.4751697,8.57142761 L0,8.57142761 L3.68891792,15 C4.82853006,15.0013376 5.60056788,15.1084805 5.99449162,15.308034 C6.36221935,15.4680221 6.66459697,15.7517616 6.85084756,16.1116053 C7.02211875,16.4464267 7.10116699,17.2366052 7.10116699,18.4553551 L7.10116699,41.6517811 C7.10116699,42.8571381 7.02211875,43.6339237 6.85084756,43.9821379 C6.67957637,44.3303522 6.58735342,44.6383879 6.17893751,44.8258946 C5.7705216,45.0134012 5.75734689,45 4.6243221,45 L4.6111474,45 L0,51.4285724 L11.461995,51.4285724 L11.461995,60 L16.8636248,60 L16.8636248,51.4285724 L21.079531,51.4285724 L21.079531,60 L26.3494137,60 L26.3494137,51.375001 C29.7748375,51.2008938 32.2121582,50.7455367 34.1751896,49.9955368 C36.717908,49.0312512 38.6677646,47.6250014 40.0642835,45.7767873 C41.4608025,43.9285732 42.0273148,41.1026807 42.1458872,38.9196452 C42.2381075,36.9776704 42.0273148,34.4732037 41.434453,33.1071392 Z M16.6705426,15.938473 L16.6718569,15.938473 L16.6718569,15.7642517 L20.3465196,15.7642517 C22.4138525,15.7642517 29.3031814,15.0778462 29.4175217,20.6856745 C29.5331763,26.2935029 20.3465196,26.0642644 20.3465196,26.0642644 L16.6718569,26.0642644 L16.6718569,25.6319861 L16.6705426,25.6319861 L16.6705426,15.938473 Z M16.6705426,31.9672131 L20.9072454,31.9672131 C21.7678256,31.9672131 24.7282217,32.1024419 25.8059329,32.1529819 C26.2453196,32.1694579 26.6802918,32.2494628 27.0981273,32.3906567 C27.2503838,32.4439286 27.3946964,32.5040303 27.5509249,32.5709617 C28.2039505,32.7886667 28.8199729,33.1103611 29.3766789,33.5243928 C29.739622,33.7716879 30.0588895,34.081213 30.3206693,34.4395773 C30.434073,34.6012897 30.5383965,34.7695774 30.6331261,34.9436118 C30.8837859,35.3812486 31.0698596,35.8549669 31.1852214,36.3491713 C31.3114063,36.8264893 31.3768305,37.3187232 31.379845,37.8134666 C31.379845,38.8775394 31.1891933,39.7585753 30.7191841,40.5043824 C30.0823547,41.6053357 29.0377427,42.3852915 27.8620577,42.9357682 C24.8222235,44.3618169 20.9072454,44.2607368 20.9072454,44.2607368 L16.6705426,44.2607368 L16.6705426,31.9672131 Z" id="Shape" fill="#E2EEEF"></path>
                    </g>
                </g>
                <g id="atom-coin" transform="translate(116.000000, 213.000000)">
                    <g id="coin" fill-rule="nonzero">
                        <circle id="Oval" fill="#3F3D56" cx="39.5" cy="39.5" r="39.5"></circle>
                        <path d="M39.0200648,0 C23.2427216,-0.00798284277 9.01489773,9.61281372 2.97352613,24.3745276 C-3.06784548,39.1362416 0.267540788,56.1304355 11.4238086,67.4297324 C22.5800763,78.7290292 39.3591539,82.1071768 53.9340107,75.9883517 C68.5088675,69.8695267 78.0078818,55.4592948 78,39.4796779 C77.989236,17.6801719 60.5436277,0.010902001 39.0200648,0 L39.0200648,0 Z M39.0989848,73.6 C20.4572719,73.6 5.34517766,58.2881384 5.34517766,39.4 C5.34517766,20.5118616 20.4572719,5.2 39.0989848,5.2 C57.7406977,5.2 72.8527919,20.5118616 72.8527919,39.4 C72.8527919,48.470404 69.2965974,57.1693078 62.9665307,63.5830519 C56.6364639,69.9967961 48.051051,73.6 39.0989848,73.6 Z" id="Shape" fill="#000000" opacity="0.1"></path>
                    </g>
                    <g id="solana-coin" transform="translate(21.000000, 23.000000)">
                        <g id="solana-icon" transform="translate(3.800000, 0.000000)" fill="#13818C">
                            <rect id="Rectangle" x="7.07586207" y="0" width="5.89655172" height="5.86206897"></rect>
                            <rect id="Rectangle" x="0" y="7.03448276" width="5.89655172" height="5.86206897"></rect>
                            <polygon id="Rectangle" points="5.89655172 0 5.89655172 5.86206897 0 5.86206897"></polygon>
                            <polygon id="Rectangle" transform="translate(2.948276, 17.000000) rotate(-90.000000) translate(-2.948276, -17.000000) " points="5.87931034 14.0517241 5.87931034 19.9482759 0.0172413793 19.9482759"></polygon>
                            <polygon id="Rectangle" transform="translate(31.251724, 17.000000) rotate(-270.000000) translate(-31.251724, -17.000000) " points="34.1827586 14.0517241 34.1827586 19.9482759 28.3206897 19.9482759"></polygon>
                            <rect id="Rectangle" x="14.1517241" y="0" width="5.89655172" height="5.86206897"></rect>
                            <rect id="Rectangle" x="21.2275862" y="0" width="5.89655172" height="5.86206897"></rect>
                            <rect id="Rectangle" x="7.07586207" y="14.0689655" width="5.89655172" height="5.86206897"></rect>
                            <rect id="Rectangle" x="14.1517241" y="14.0689655" width="5.89655172" height="5.86206897"></rect>
                            <rect id="Rectangle" x="21.2275862" y="14.0689655" width="5.89655172" height="5.86206897"></rect>
                            <polygon id="Rectangle" points="28.3034483 0 34.2 0 28.3034483 5.86206897"></polygon>
                            <rect id="Rectangle" x="7.07586207" y="28.137931" width="5.89655172" height="5.86206897"></rect>
                            <polygon id="Rectangle" points="5.89655172 28.137931 5.89655172 34 0 34"></polygon>
                            <rect id="Rectangle" x="14.1517241" y="28.137931" width="5.89655172" height="5.86206897"></rect>
                            <rect id="Rectangle" x="21.2275862" y="28.137931" width="5.89655172" height="5.86206897"></rect>
                            <rect id="Rectangle" x="28.3034483" y="21.1034483" width="5.89655172" height="5.86206897"></rect>
                            <polygon id="Rectangle" points="28.3034483 28.137931 34.2 28.137931 28.3034483 34"></polygon>
                        </g>
                        <g id="solana-icon" fill="#E2EEEF">
                            <rect id="Rectangle" x="7.07586207" y="0" width="5.89655172" height="5.86206897"></rect>
                            <rect id="Rectangle" x="0" y="7.03448276" width="5.89655172" height="5.86206897"></rect>
                            <polygon id="Rectangle" points="5.89655172 0 5.89655172 5.86206897 0 5.86206897"></polygon>
                            <polygon id="Rectangle" transform="translate(2.948276, 17.000000) rotate(-90.000000) translate(-2.948276, -17.000000) " points="5.87931034 14.0517241 5.87931034 19.9482759 0.0172413793 19.9482759"></polygon>
                            <polygon id="Rectangle" transform="translate(31.251724, 17.000000) rotate(-270.000000) translate(-31.251724, -17.000000) " points="34.1827586 14.0517241 34.1827586 19.9482759 28.3206897 19.9482759"></polygon>
                            <rect id="Rectangle" x="14.1517241" y="0" width="5.89655172" height="5.86206897"></rect>
                            <rect id="Rectangle" x="21.2275862" y="0" width="5.89655172" height="5.86206897"></rect>
                            <rect id="Rectangle" x="7.07586207" y="14.0689655" width="5.89655172" height="5.86206897"></rect>
                            <rect id="Rectangle" x="14.1517241" y="14.0689655" width="5.89655172" height="5.86206897"></rect>
                            <rect id="Rectangle" x="21.2275862" y="14.0689655" width="5.89655172" height="5.86206897"></rect>
                            <polygon id="Rectangle" points="28.3034483 0 34.2 0 28.3034483 5.86206897"></polygon>
                            <rect id="Rectangle" x="7.07586207" y="28.137931" width="5.89655172" height="5.86206897"></rect>
                            <polygon id="Rectangle" points="5.89655172 28.137931 5.89655172 34 0 34"></polygon>
                            <rect id="Rectangle" x="14.1517241" y="28.137931" width="5.89655172" height="5.86206897"></rect>
                            <rect id="Rectangle" x="21.2275862" y="28.137931" width="5.89655172" height="5.86206897"></rect>
                            <rect id="Rectangle" x="28.3034483" y="21.1034483" width="5.89655172" height="5.86206897"></rect>
                            <polygon id="Rectangle" points="28.3034483 28.137931 34.2 28.137931 28.3034483 34"></polygon>
                        </g>
                    </g>
                </g>
                <g id="ether-icon" transform="translate(70.000000, 111.000000)">
                    <g id="coin" fill-rule="nonzero">
                        <circle id="Oval" fill="#3F3D56" cx="26" cy="26" r="26"></circle>
                        <path d="M25.5131193,0 C15.1971641,-0.00525452942 5.89435621,6.32742169 1.94422862,16.0439929 C-2.00589897,25.7605641 0.174930516,36.9466158 7.46941329,44.3841276 C14.7638961,51.8216395 25.7348314,54.0452303 35.2645454,50.0176492 C44.7942595,45.9900682 51.0051535,36.5048523 51,25.9866235 C50.992962,11.6375815 39.5862181,0.00717600065 25.5131193,0 L25.5131193,0 Z M25.5647208,48.4455696 C13.3759085,48.4455696 3.49492386,38.3668759 3.49492386,25.9341772 C3.49492386,13.5014785 13.3759085,3.42278481 25.5647208,3.42278481 C37.7535331,3.42278481 47.6345178,13.5014785 47.6345178,25.9341772 C47.6345178,31.9045697 45.3093137,37.6304304 41.1704239,41.8521354 C37.0315341,46.0738404 31.4179949,48.4455696 25.5647208,48.4455696 Z" id="Shape" fill="#000000" opacity="0.1"></path>
                    </g>
                    <g id="ether" transform="translate(16.000000, 10.000000)">
                        <polygon id="Path-2" fill="#13818C" points="0 16 10 11.7225004 10 0"></polygon>
                        <polygon id="Path-3" fill="#E2EEEF" points="20 16 10 11.7639517 10 0"></polygon>
                        <polygon id="Path-4" fill="#2CA0AC" points="0 16 10 22 10 11.6419649"></polygon>
                        <polygon id="Path-5" fill="#BADEE1" points="10 22 20 15.9341772 10 11.6419649"></polygon>
                        <polygon id="Path-6" fill="#13818C" points="0 18 10 24.0269707 10 32"></polygon>
                        <polygon id="Path-7" fill="#E2EEEF" points="10 24.0285194 20 18 10 32"></polygon>
                    </g>
                </g>
                <g id="girl" transform="translate(279.000000, 290.000000)" fill-rule="nonzero">
                    <path d="M128.805391,27.5435052 C128.828028,24.5509829 127.442009,21.7242798 125.068368,19.9226356 C124.923251,14.3408965 120.968833,9.78176604 115.883716,9.07567908 C115.084159,5.21591589 112.299795,2.07879581 108.57953,0.846113862 L108.57953,0.846113862 C108.134747,0.704285172 107.679968,0.596442837 107.219065,0.523505167 L107.086042,0.523505167 L106.850228,0.493070384 L106.650693,0.493070384 L106.451158,0.493070384 L106.191158,0.493070384 L106.033949,0.493070384 L105.604647,0.493070384 C100.41674,0.493070384 96.0995303,4.48611386 95.2106931,9.75133125 C91.8548792,8.97220082 88.7772048,9.9826356 88.2269722,12.1191573 C88.0848992,12.6854374 88.1165197,13.2817562 88.3176699,13.8295921 C88.886042,15.4852443 90.7362745,17.067853 93.2455768,17.8530704 L93.5720885,17.9504617 C93.7353443,17.9991573 93.8986001,18.0356791 94.0618559,18.0722008 L94.1706931,18.0722008 L94.1706931,18.0722008 C92.2546866,22.1847395 93.8797913,27.0873095 97.8651117,29.2174182 C97.789509,29.2591044 97.7167858,29.3058772 97.6474373,29.3574182 C97.3375424,29.6437611 97.0904145,29.9920543 96.9218559,30.3800269 C96.3155711,31.4511161 95.844338,32.5941388 95.5190652,33.7826356 C95.2772048,34.7991573 95.2348792,35.8643747 94.9144141,36.8687226 C94.3641815,38.6948095 92.9492978,40.2956791 92.786042,42.2374182 C92.7134838,43.101766 92.8525536,44.1182878 92.2418559,44.7087226 C92.0898125,44.8405034 91.9281137,44.9605539 91.758135,45.067853 C91.3300264,45.3627772 90.9676067,45.7442049 90.6939489,46.187853 C90.5157513,46.5547753 90.2764828,46.8882862 89.9865071,47.1739399 C89.4362745,47.5939399 88.5292978,47.5513313 88.2572048,48.1965486 C87.9851117,48.841766 88.6865071,49.6026356 88.5232513,50.3087226 C88.390228,50.8808965 87.7674373,51.1426356 87.3139489,51.5261139 C86.8067383,52.079936 86.4523589,52.7577608 86.286042,53.4922008 C84.4572018,53.847284 82.5663256,53.3630345 81.1283675,52.1713313 C81.3719216,52.7983242 81.5502394,53.44905 81.6604606,54.1130704 C80.9409257,53.3400269 79.7558094,53.1148095 78.8790652,52.7130704 C77.7482572,52.191503 76.7388725,51.4366588 75.9162745,50.4974182 L77.5004606,50.2782878 L70.4865071,39.5652443 L68.4186001,39.1391573 L70.2748792,42.7243747 C69.9671159,42.8730987 69.7442164,43.1558307 69.670228,43.4913313 C69.5702466,43.8889301 69.5456306,44.3019415 69.5976699,44.7087226 C69.6959133,45.6696447 69.8554676,46.6232084 70.0753443,47.5635052 L70.6134838,50.0835052 C70.6590813,50.3199117 70.7176202,50.5536013 70.7888327,50.7835052 C70.0876277,50.7579981 69.3865686,50.8380103 68.7088327,51.0208965 C67.3185467,50.5032288 65.8708529,50.1577915 64.3976699,49.9922008 C64.0736367,49.9349869 63.7409844,49.9516268 63.4241815,50.0408965 C63.0647297,50.2078698 62.7528189,50.4632541 62.5172048,50.7835052 C61.3077733,52.1909332 60.2346809,53.7114646 59.3125536,55.3243747 C55.5455768,61.9226356 50.5148792,67.6808965 45.8046466,73.6461139 C42.5516234,74.9791573 39.2744141,76.2452443 35.9911582,77.4991573 L28.9348792,80.207853 C27.526042,80.7495921 26.0627861,81.3035052 24.5632513,81.2061139 C23.886042,81.1635052 23.0637164,81.0600269 22.6827861,81.6382878 C22.4973503,81.9249325 22.3528372,82.236382 22.2534838,82.5635052 C22.0055768,82.5635052 21.7576699,82.6243747 21.5279024,82.6365486 L21.4855768,82.6365486 C21.038135,81.5165486 20.6511582,80.3174182 19.7925536,79.501766 C19.441502,79.5560384 19.1413466,79.7849499 18.9944141,80.1104617 C18.8251117,80.4269834 18.722321,80.7739399 18.5288327,81.0661139 C18.1479024,81.6261139 17.4888327,81.9000269 17.0172048,82.3748095 C16.5455768,82.8495921 16.2492978,83.5922008 15.7413908,84.0548095 C15.0301602,84.5752259 14.196648,84.9003723 13.3227861,84.9982878 C12.0137742,85.3085611 10.7512215,85.7915812 9.56790243,86.4348095 C9.13153308,86.7049019 8.6646547,86.9215112 8.17720475,87.0800269 C7.64118361,87.1835107 7.09238644,87.2019947 6.55069312,87.1348095 L2.81394894,86.8608965 C2.48143766,86.8170906 2.14390549,86.8315059 1.81627452,86.9035052 C1.02466279,87.1955929 0.5280111,87.9880514 0.606972193,88.8330704 C0.698994115,89.657317 1.12579602,90.4064621 1.78604196,90.9026356 C2.43470951,91.3813735 3.15252358,91.7570515 3.91441405,92.0165486 C7.16150933,93.2826249 10.5090792,94.2701968 13.9213908,94.9687226 L13.9213908,95.7295921 C16.2866182,96.9287757 18.8977797,97.5541431 21.546042,97.5556791 C21.7411894,97.5710244 21.9369666,97.5353811 22.1144141,97.4522008 C22.3591927,97.2671518 22.5289281,96.9989496 22.5920885,96.6974182 C23.3849191,94.3103524 23.8864303,91.8350796 24.0855768,89.3261139 L24.0855768,89.3261139 C24.5525393,89.2957731 25.009799,89.1781133 25.4339489,88.9791573 C26.7218559,88.6261139 27.9976699,89.5148095 29.3218559,89.6608965 C30.9544141,89.8374182 32.4720885,88.881766 34.0139489,88.2913313 C34.2376699,88.2061139 34.4613908,88.1330704 34.6851117,88.0600269 C34.2452642,88.6328714 33.726016,89.1391937 33.1432513,89.5635052 C32.502321,90.0261139 31.7827861,90.3669834 31.1539489,90.847853 C30.631349,91.3285102 30.0712547,91.7661484 29.4790652,92.1565486 C29.0615723,92.3522979 28.6312652,92.5190641 28.1911582,92.6556791 C27.5530517,92.889984 26.9442839,93.1984467 26.3772048,93.5748095 C25.8692552,93.8761139 25.4385146,94.293058 25.1195303,94.7922008 C24.7928181,95.2659261 24.7334508,95.876305 24.9626813,96.4048287 C25.1919119,96.9333524 25.6769591,97.3044393 26.2441815,97.3852443 C26.7492078,97.4754981 27.2647379,97.4898572 27.7739489,97.427853 C29.7934838,97.2756791 31.8069722,97.0869834 33.8204606,96.9043747 C34.6729006,96.8471599 35.519816,96.7250721 36.3539489,96.5391573 C36.7953443,96.4295921 37.2306931,96.2835052 37.6720885,96.167853 C38.4251103,95.967882 39.1976229,95.8515362 39.9758094,95.8208965 C40.2017043,95.8029749 40.4289651,95.8256469 40.6469722,95.887853 C41.1186001,96.0400269 41.4511582,96.4965486 41.9288327,96.6182878 C42.2389273,96.6486909 42.5517699,96.604892 42.8418559,96.4904617 C44.3158351,96.1682472 45.8200389,96.0070249 47.3283675,96.0095921 C47.9874373,95.9730704 48.7613908,95.8452443 49.0697629,95.2304617 C49.4446466,94.4695921 48.8158094,93.6174182 48.5679024,92.7956791 C48.4415666,92.2732681 48.3726259,91.7384656 48.362321,91.2008965 C48.2473176,89.8746199 47.8689899,88.5850831 47.2497629,87.4087226 C46.9206331,86.8597891 46.643298,86.2810298 46.4213908,85.6800269 C49.310802,84.5736018 52.0754279,83.1616385 54.6688327,81.467853 C56.1562745,80.5365486 57.6920885,79.5322008 59.3730187,79.1913313 C61.3320885,78.7956791 63.3516234,79.3191573 65.2804606,79.8791573 C69.8748913,81.2173061 74.3941849,82.8042545 78.8186001,84.6330704 C80.9348792,85.5035052 83.0511582,86.4287226 85.2158094,87.067853 C85.8486801,87.9275168 86.6141803,88.6796425 87.4832513,89.2956791 C88.9344141,90.2391573 90.706042,90.5130704 92.4111582,90.6469834 C94.7146173,90.8588629 97.0277061,90.9462348 99.3404606,90.9087226 C101.106042,90.8782878 102.926042,90.7565486 104.504181,89.9469834 C104.889745,89.7477526 105.252652,89.5069176 105.586507,89.2287226 C106.795809,89.447853 108.035344,88.7965486 108.984647,87.9626356 C110.241058,86.8865933 111.146959,85.455028 111.584647,83.8539399 C112.140926,81.6565486 111.711623,79.0939399 113.053949,77.2982878 C113.410693,76.8174182 113.876275,76.427853 114.226972,75.9408965 C114.65881,75.2887662 114.870802,74.5140862 114.831623,73.7313313 L114.892088,73.6400269 C115.195872,72.9336818 115.399418,72.1878197 115.49674,71.4243747 C115.655765,70.8280109 115.857853,70.2441384 116.101391,69.6774182 C116.783084,67.9789339 117.376446,66.2458621 117.879065,64.4852443 C118.228594,63.317228 118.503267,62.127825 118.701391,60.9243747 C118.846507,59.9626356 118.931158,58.9948095 119.009763,58.0269834 C119.106781,56.5120192 119.399477,55.016239 119.880461,53.5774182 C121.073933,50.1434834 121.748583,46.5486452 121.881856,42.9130704 C121.881856,42.8400269 121.881856,42.7730704 121.881856,42.7000269 C125.519576,42.2984545 128.256584,39.1766418 128.200461,35.4930704 C128.202056,34.4216109 127.979557,33.3618162 127.547437,32.3826356 C128.3817,30.9088379 128.815486,29.2397678 128.805391,27.5435052 Z M94.6120885,69.3669834 C94.7148792,69.7382878 94.8358094,70.1095921 94.9567396,70.4808965 C94.4004606,69.9269834 93.850228,69.3548095 93.2879024,68.8069834 C93.5116234,68.8739399 93.7353443,68.9469834 93.9530187,69.0261139 C94.1848149,69.1185712 94.4074939,69.2326934 94.618135,69.3669834 L94.6120885,69.3669834 Z M91.9032513,67.5408965 C88.6018559,64.6556791 84.7804606,62.4156791 81.4004606,59.627853 C83.2144141,60.5469834 85.0283675,61.6122008 86.842321,62.6348095 C88.9545691,63.8522008 91.0910032,65.0168385 93.2516234,66.1287226 C92.8971992,66.6700969 92.4461711,67.1406526 91.9213908,67.5165486 L91.9032513,67.5408965 Z M93.3120885,60.2730704 L93.4692978,60.1087226 C93.4692978,60.5165486 93.4692978,60.9000269 93.4692978,61.2469834 C93.1730187,61.1495921 92.8646466,61.0522008 92.5804606,60.9426356 C92.8415601,60.728279 93.0880101,60.4964492 93.318135,60.2487226 L93.3120885,60.2730704 Z M64.2465071,68.0887226 C65.6060063,66.5408512 66.7884607,64.8441235 67.7716234,63.0304617 C69.0776699,65.3374182 71.206042,66.9991573 73.0199954,68.9287226 C70.1055768,68.5148095 67.1851117,68.1922008 64.2525536,68.0643747 L64.2465071,68.0887226 Z" id="Shape" fill="url(#linearGradient-1)"></path>
                    <polygon id="Path" fill="#2F2E41" points="68.9627861 40.027853 71.0488327 40.4539399 78.1534838 51.0208965 75.0153443 51.4469834"></polygon>
                    <path d="M18.4441815,82.9165486 C19.0066747,84.7894586 19.6997128,86.6200894 20.518135,88.3948095 C22.8722155,87.8990093 25.1879276,87.2338235 27.4474373,86.4043747 C27.010118,85.7186291 26.5294357,85.061911 26.0083675,84.4382878 C25.4529143,83.8167122 24.7889006,83.302992 24.0492978,82.9226356 C23.3297629,82.6061139 22.4409257,82.8435052 21.6730187,82.8861139 C20.5967396,82.9266936 19.5204606,82.9368385 18.4441815,82.9165486 Z" id="Path" fill="#FBBEBE"></path>
                    <path d="M24.0613908,85.7408965 C22.8883675,85.3695921 22.1688327,84.1765486 21.6911582,83.0261139 C21.2134838,81.8756791 20.8265071,80.621766 19.9195303,79.7756791 C19.5689204,79.8309998 19.2692062,80.0595747 19.1213908,80.3843747 C18.946042,80.6887226 18.8432513,81.0356791 18.6437164,81.327853 C18.2688327,81.8756791 17.6037164,82.1435052 17.126042,82.6122008 C16.6483675,83.0808965 16.3520885,83.7930704 15.838135,84.261766 C15.1251013,84.7778103 14.2922323,85.1006097 13.4195303,85.1991573 C12.1015006,85.4998421 10.8287608,85.9746834 9.63441405,86.6113313 C9.19233496,86.8692835 8.7214568,87.0736058 8.23162336,87.2200269 C7.69152409,87.3234966 7.13874724,87.3419773 6.5930187,87.2748095 L2.82604196,87.0008965 C2.49117264,86.9589927 2.15163568,86.9754654 1.82232103,87.0495921 C1.03256503,87.3263481 0.533087204,88.1107455 0.613018704,88.9487226 C0.714069755,89.7691315 1.15287826,90.5090522 1.82232103,90.987853 C2.47722385,91.45901 3.19877849,91.8283563 3.96278615,92.0835052 C7.24473607,93.3258748 10.6218057,94.296915 14.0604606,94.9869834 L14.0604606,95.7356791 C16.4502807,96.9264895 19.0790479,97.5511199 21.7455768,97.561766 C21.9526116,97.5801537 22.1608596,97.5445147 22.350228,97.4582878 C22.595242,97.2776619 22.7670587,97.0138887 22.8339489,96.7156791 C23.7377499,94.0560748 24.2649434,91.2815781 24.3999954,88.4739399 C24.4693417,87.7640099 24.4161542,87.047354 24.2427861,86.3556791 C24.0372048,85.6739399 24.7386001,85.9600269 24.0855768,85.6922008" id="Path" fill="#2F2E41"></path>
                    <path d="M96.2809257,71.4487226 C85.1130187,72.1304617 74.0841815,68.8313313 62.898135,68.4782878 C61.509815,68.3932685 60.1163824,68.483241 58.750228,68.7461139 C57.3259808,69.1304723 55.947369,69.6692782 54.6386001,70.3530704 C48.6465071,73.1591573 42.4427861,75.4843747 36.2451117,77.8095921 L29.1344141,80.4756791 C27.7074373,81.0052443 26.238135,81.5469834 24.7204606,81.4556791 C24.0432513,81.4130704 23.2148792,81.3095921 22.8279024,81.881766 C21.6730187,83.6043747 22.2232513,86.1426356 22.9851117,88.0782878 C23.2330187,88.6869834 23.650228,89.3869834 24.3153443,89.4600269 C24.7858586,89.4276126 25.2467158,89.3100812 25.6758094,89.1130704 C26.9697629,88.7661139 28.2637164,89.6426356 29.5939489,89.7826356 C31.2446466,89.9591573 32.7744141,89.0156791 34.3283675,88.4374182 C36.9041815,87.481766 39.7218559,87.5122008 42.4306931,87.0556791 C46.9776699,86.2948095 51.186042,84.1704617 55.1283675,81.747853 C56.6279024,80.8287226 58.1516234,79.8426356 59.8688327,79.507853 C61.846042,79.1182878 63.8837164,79.6295921 65.8246466,80.1835052 C70.4519028,81.5022114 75.0071687,83.0646531 79.4716234,84.8643747 C81.7953691,85.8807361 84.1780069,86.7547931 86.6065071,87.481766 C91.8993305,88.884666 97.49824,88.5563757 102.593484,86.5443747 C104.407437,85.8322008 106.318135,84.5782878 106.420926,82.6365486 C106.481391,81.5287226 105.628833,80.5548095 105.060461,79.5930704 C104.691623,78.9843747 104.328833,78.3756791 103.929763,77.7974182 C102.006972,74.9730704 99.6730187,71.241766 96.2809257,71.4487226 Z" id="Path" fill="#2F2E41"></path>
                    <path d="M96.2809257,71.4487226 C85.1130187,72.1304617 74.0841815,68.8313313 62.898135,68.4782878 C61.509815,68.3932685 60.1163824,68.483241 58.750228,68.7461139 C57.3259808,69.1304723 55.947369,69.6692782 54.6386001,70.3530704 C48.6465071,73.1591573 42.4427861,75.4843747 36.2451117,77.8095921 L29.1344141,80.4756791 C27.7074373,81.0052443 26.238135,81.5469834 24.7204606,81.4556791 C24.0432513,81.4130704 23.2148792,81.3095921 22.8279024,81.881766 C21.6730187,83.6043747 22.2232513,86.1426356 22.9851117,88.0782878 C23.2330187,88.6869834 23.650228,89.3869834 24.3153443,89.4600269 C24.7858586,89.4276126 25.2467158,89.3100812 25.6758094,89.1130704 C26.9697629,88.7661139 28.2637164,89.6426356 29.5939489,89.7826356 C31.2446466,89.9591573 32.7744141,89.0156791 34.3283675,88.4374182 C36.9041815,87.481766 39.7218559,87.5122008 42.4306931,87.0556791 C46.9776699,86.2948095 51.186042,84.1704617 55.1283675,81.747853 C56.6279024,80.8287226 58.1516234,79.8426356 59.8688327,79.507853 C61.846042,79.1182878 63.8837164,79.6295921 65.8246466,80.1835052 C70.4519028,81.5022114 75.0071687,83.0646531 79.4716234,84.8643747 C81.7953691,85.8807361 84.1780069,86.7547931 86.6065071,87.481766 C91.8993305,88.884666 97.49824,88.5563757 102.593484,86.5443747 C104.407437,85.8322008 106.318135,84.5782878 106.420926,82.6365486 C106.481391,81.5287226 105.628833,80.5548095 105.060461,79.5930704 C104.691623,78.9843747 104.328833,78.3756791 103.929763,77.7974182 C102.006972,74.9730704 99.6730187,71.241766 96.2809257,71.4487226 Z" id="Path" fill="#000000" opacity="0.1"></path>
                    <path d="M39.8790652,83.4643747 C41.6285226,84.0608965 43.390073,84.6127805 45.1637164,85.1200269 C46.1613908,83.4704617 48.0237164,82.3261139 48.4469722,80.4452443 C48.4709976,80.3638139 48.4709976,80.2771095 48.4469722,80.1956791 C48.4006972,80.1156012 48.3310204,80.0518349 48.2474373,80.0130704 C46.972698,79.3052206 45.5583965,78.8895237 44.1055768,78.7956791 C42.9567396,78.7226356 42.4367396,79.927853 41.9167396,80.7739399 C41.7353443,81.1148095 40.3446466,83.6226356 39.8790652,83.4643747 Z" id="Path" fill="#FBBEBE"></path>
                    <path d="M42.3399954,82.2591573 C41.2841901,82.0823029 40.3512802,81.4657785 39.770228,80.5608965 C39.522321,80.1287226 39.262321,79.5443747 38.7665071,79.5748095 C38.2706931,79.6052443 38.1013908,80.1530704 37.9986001,80.6095921 C37.6637731,82.3149188 37.1801941,83.9871948 36.5534838,85.6069834 C35.9214672,87.2315162 34.8513553,88.6460917 33.4637164,89.6913313 C32.8167396,90.141766 32.0972048,90.4826356 31.462321,90.9574182 C30.93319,91.4324762 30.3670306,91.8640071 29.7692978,92.247853 C29.3482576,92.4416677 28.9137794,92.6044154 28.4692978,92.7348095 C27.8177869,92.9638631 27.1948651,93.2682155 26.6130187,93.641766 C26.1030049,93.942493 25.6701721,94.3594576 25.3492978,94.8591573 C25.0350912,95.3741386 24.9943415,96.012262 25.2404606,96.5635052 C25.5040693,97.0096131 25.9438119,97.3217053 26.4497629,97.421766 C26.9594416,97.5069939 27.4785268,97.5192894 27.9916234,97.4582878 C30.0292978,97.3061139 32.0609257,97.1235052 34.0925536,96.9408965 C34.952641,96.887352 35.8075675,96.7693439 36.650228,96.587853 C37.0976699,96.4782878 37.5330187,96.3322008 37.9744141,96.2165486 C38.7363605,96.0210521 39.5166243,95.9068001 40.302321,95.8756791 C40.5302063,95.8583086 40.7593564,95.8809649 40.9795303,95.9426356 C41.4511582,96.0948095 41.7837164,96.5513313 42.2674373,96.6608965 C42.5790393,96.6935118 42.8938919,96.6518067 43.1865071,96.5391573 C44.6735034,96.2223706 46.1893696,96.0632417 47.7092978,96.0643747 C48.3744141,96.027853 49.1604606,95.9000269 49.4627861,95.2974182 C49.8437164,94.5487226 49.2148792,93.7087226 48.9609257,92.9052443 C48.8355247,92.3907519 48.7645866,91.8643395 48.7492978,91.3348095 C48.6348365,90.0269241 48.2540605,88.7567783 47.6306931,87.6035052 C47.1106931,86.641766 46.4213908,85.5826356 46.766042,84.5600269 C46.9513672,84.2408772 47.0687359,83.886416 47.1106931,83.5191573 C47.026042,81.8695921 43.2590652,82.4782878 42.3399954,82.2591573 Z" id="Path" fill="#2F2E41"></path>
                    <path d="M79.538135,53.4191573 C77.5597779,52.5401237 75.9745606,50.9551442 75.0879024,48.9695921 C74.9065071,48.5435052 74.7492978,48.0991573 74.5739489,47.6669834 C73.9854163,46.2382071 73.0745549,44.9669753 71.9134838,43.9539399 C71.6619873,43.6752834 71.3017003,43.5217491 70.9279024,43.5339399 C70.5641542,43.6429006 70.2868894,43.9406279 70.202321,44.3130704 C70.0987055,44.7100209 70.0720178,45.1233483 70.1237164,45.5304617 C70.2269952,46.4750173 70.3885476,47.4121898 70.6074373,48.3365486 L71.1516234,50.8200269 C71.2202769,51.2015562 71.3339501,51.5734654 71.490228,51.927853 C71.7229244,52.3444464 72.0304667,52.7139016 72.3972048,53.0174182 C72.8930187,53.4800269 73.3948792,53.9243747 73.9027861,54.3565486 C74.1827229,54.6116463 74.4887804,54.8360934 74.8158094,55.0261139 C75.3522966,55.2821233 75.9258172,55.4506046 76.5148792,55.5252443 C78.7339489,55.9391573 80.9892978,56.5356791 82.8576699,57.9600269 C82.8576699,57.9600269 82.8576699,56.2982878 82.8153443,56.1339399 C82.7926977,55.6523872 82.6285546,55.1884412 82.3437164,54.8008965 C81.642321,54.0400269 80.4330187,53.8148095 79.538135,53.4191573 Z" id="Path" fill="#FBBEBE"></path>
                    <path d="M79.538135,53.4191573 C77.5597779,52.5401237 75.9745606,50.9551442 75.0879024,48.9695921 C74.9065071,48.5435052 74.7492978,48.0991573 74.5739489,47.6669834 C73.9854163,46.2382071 73.0745549,44.9669753 71.9134838,43.9539399 C71.6619873,43.6752834 71.3017003,43.5217491 70.9279024,43.5339399 C70.5641542,43.6429006 70.2868894,43.9406279 70.202321,44.3130704 C70.0987055,44.7100209 70.0720178,45.1233483 70.1237164,45.5304617 C70.2269952,46.4750173 70.3885476,47.4121898 70.6074373,48.3365486 L71.1516234,50.8200269 C71.2202769,51.2015562 71.3339501,51.5734654 71.490228,51.927853 C71.7229244,52.3444464 72.0304667,52.7139016 72.3972048,53.0174182 C72.8930187,53.4800269 73.3948792,53.9243747 73.9027861,54.3565486 C74.1827229,54.6116463 74.4887804,54.8360934 74.8158094,55.0261139 C75.3522966,55.2821233 75.9258172,55.4506046 76.5148792,55.5252443 C78.7339489,55.9391573 80.9892978,56.5356791 82.8576699,57.9600269 C82.8576699,57.9600269 82.8576699,56.2982878 82.8153443,56.1339399 C82.7926977,55.6523872 82.6285546,55.1884412 82.3437164,54.8008965 C81.642321,54.0400269 80.4330187,53.8148095 79.538135,53.4191573 Z" id="Path" fill="#000000" opacity="0.1"></path>
                    <ellipse id="Oval" fill="#2F2E41" cx="102.273019" cy="31.6765486" rx="2.71488372" ry="2.75130435"></ellipse>
                    <path d="M100.592088,30.0148095 C99.8630695,29.8475108 99.0983283,29.9581099 98.4455768,30.3252443 C98.1318422,30.6046994 97.8822024,30.9494712 97.7139489,31.3356791 C97.1032248,32.3867152 96.6277815,33.511685 96.2990652,34.6835052 C96.0572048,35.687853 96.0148792,36.7348095 95.6944141,37.7269834 C95.138135,39.5530704 93.7111582,41.1052443 93.5479024,43.0104617 C93.4753443,43.8626356 93.6144141,44.8669834 92.9976699,45.4452443 C92.8443976,45.574557 92.6805607,45.6906209 92.5079024,45.7922008 C92.0783892,46.0823866 91.7138538,46.4597268 91.4376699,46.9000269 C91.2529744,47.2953032 90.9966521,47.6524262 90.6818559,47.9530704 C90.1255768,48.3669834 89.2125536,48.3243747 88.9404606,48.9635052 C88.6683675,49.6026356 89.3697629,50.3452443 89.2065071,51.0391573 C89.0734838,51.6052443 88.4446466,51.8669834 87.9972048,52.2565486 C87.487537,52.7999905 87.130679,53.470161 86.9632513,54.1982878 C85.1251612,54.5466379 83.2276604,54.0685337 81.7692978,52.8895921 C82.5251117,54.7704617 82.5432513,56.8461139 82.5734838,58.8730704 C82.6606531,59.5214217 82.4888733,60.1781133 82.0958094,60.6991573 C84.2604606,60.747853 86.3646466,61.307853 88.4748792,61.8130704 C89.3773589,62.1174552 90.3537948,62.1174552 91.2562745,61.8130704 C91.738708,61.5515006 92.1707819,61.2051786 92.5320885,60.7904617 C93.6809257,59.6156791 94.8841815,58.3556791 95.162321,56.7182878 C95.235905,55.7970233 95.2520607,54.8720217 95.2106931,53.9487226 C95.3216983,52.8087864 95.5548367,51.6842778 95.906042,50.5948095 C96.5132768,48.3328867 96.9179953,46.0207464 97.1153443,43.6861139 C97.242321,42.2435052 98.4758094,41.0869834 99.1288327,39.7965486 C100.338135,37.361766 101.607902,34.8356791 101.704647,32.1087226 C101.789298,31.2200269 101.486972,30.1304617 100.592088,30.0148095 Z" id="Path" fill="#2F2E41"></path>
                    <path d="M100.592088,30.0148095 C99.8630695,29.8475108 99.0983283,29.9581099 98.4455768,30.3252443 C98.1318422,30.6046994 97.8822024,30.9494712 97.7139489,31.3356791 C97.1032248,32.3867152 96.6277815,33.511685 96.2990652,34.6835052 C96.0572048,35.687853 96.0148792,36.7348095 95.6944141,37.7269834 C95.138135,39.5530704 93.7111582,41.1052443 93.5479024,43.0104617 C93.4753443,43.8626356 93.6144141,44.8669834 92.9976699,45.4452443 C92.8443976,45.574557 92.6805607,45.6906209 92.5079024,45.7922008 C92.0783892,46.0823866 91.7138538,46.4597268 91.4376699,46.9000269 C91.2529744,47.2953032 90.9966521,47.6524262 90.6818559,47.9530704 C90.1255768,48.3669834 89.2125536,48.3243747 88.9404606,48.9635052 C88.6683675,49.6026356 89.3697629,50.3452443 89.2065071,51.0391573 C89.0734838,51.6052443 88.4446466,51.8669834 87.9972048,52.2565486 C87.487537,52.7999905 87.130679,53.470161 86.9632513,54.1982878 C85.1251612,54.5466379 83.2276604,54.0685337 81.7692978,52.8895921 C82.5251117,54.7704617 82.5432513,56.8461139 82.5734838,58.8730704 C82.6606531,59.5214217 82.4888733,60.1781133 82.0958094,60.6991573 C84.2604606,60.747853 86.3646466,61.307853 88.4748792,61.8130704 C89.3773589,62.1174552 90.3537948,62.1174552 91.2562745,61.8130704 C91.738708,61.5515006 92.1707819,61.2051786 92.5320885,60.7904617 C93.6809257,59.6156791 94.8841815,58.3556791 95.162321,56.7182878 C95.235905,55.7970233 95.2520607,54.8720217 95.2106931,53.9487226 C95.3216983,52.8087864 95.5548367,51.6842778 95.906042,50.5948095 C96.5132768,48.3328867 96.9179953,46.0207464 97.1153443,43.6861139 C97.242321,42.2435052 98.4758094,41.0869834 99.1288327,39.7965486 C100.338135,37.361766 101.607902,34.8356791 101.704647,32.1087226 C101.789298,31.2200269 101.486972,30.1304617 100.592088,30.0148095 Z" id="Path" fill="#000000" opacity="0.1"></path>
                    <path d="M98.0525536,73.8165486 C95.7246466,72.7026356 94.0255768,70.6269834 92.1451117,68.8495921 C88.5534838,65.4530704 84.1637164,63.0548095 80.3906931,59.8713313 C77.8934838,57.7652443 75.6562745,55.3122008 72.9051117,53.5469834 C70.4854775,51.9929938 67.7412293,51.0242072 64.8874373,50.7165486 C64.5613917,50.6592401 64.2267528,50.675876 63.9079024,50.7652443 C63.5474762,50.927703 63.2334837,51.1789026 62.9948792,51.4956791 C61.775867,52.8785388 60.6925318,54.3768144 59.7599954,55.9695921 C54.9772048,64.1382878 48.1869722,71.0104617 42.5576699,78.6130704 C42.1832823,78.9843335 42.154356,79.5826125 42.4911582,79.9887226 L43.6339489,82.2469834 C44.2748792,83.5069834 45.3027861,84.9800269 46.6572048,84.7304617 C47.2786188,84.5501542 47.8350428,84.1929291 48.2595303,83.701766 L53.3990652,78.7530704 L58.7865071,73.5669834 C61.9427861,70.5235052 65.1534838,67.4191573 67.2153443,63.5356791 C68.8237164,66.341766 71.6776699,68.1800269 73.6367396,70.7548095 C74.3804606,71.7287226 74.9851117,72.8061139 75.650228,73.8408965 C76.7204606,75.5026356 77.9297629,77.0608965 79.1390652,78.6130704 L85.3246466,86.5565486 C86.1050405,87.6879018 87.0723958,88.6761394 88.1846466,89.4782878 C89.6479024,90.4095921 91.4316234,90.6591573 93.1548792,90.8113313 C95.4764271,91.0244729 97.8078058,91.1098174 100.1386,91.0669834 C101.916275,91.0365486 103.766507,90.9208965 105.3386,90.1235052 C106.910693,89.3261139 108.246972,87.6887226 108.162321,85.9052443 C108.066157,84.9707031 107.762378,84.0699131 107.273484,83.2695921 C105.090693,79.1913313 102.200461,75.7826356 98.0525536,73.8165486 Z" id="Path" fill="#2F2E41"></path>
                    <ellipse id="Oval" fill="#E8E8F0" cx="103.941856" cy="33.581766" rx="2.08604651" ry="2.11217391"></ellipse>
                    <path d="M103.482321,31.9930704 C103.953661,32.9376271 104.036215,34.0311322 103.712088,35.0365486 C103.389646,36.0255457 102.938265,36.9670966 102.369763,37.8365486 C101.880489,38.7345271 101.294476,39.5755374 100.622321,40.3443747 C103.845112,40.5026356 106.971158,39.2304617 109.813019,37.6843747 C112.104647,36.4669834 114.390228,34.9148095 115.611623,32.5956791 C114.876545,32.7720801 114.101655,32.6284406 113.477205,32.2000269 C112.862265,31.7685912 112.310661,31.252229 111.8386,30.6661139 L110.224181,28.8400269 C109.842863,28.4393164 109.508146,27.9961678 109.226507,27.5191573 C108.873127,26.8711025 108.72343,26.1303453 108.797205,25.3948095 C108.154489,26.0722493 107.436247,26.6727447 106.65674,27.1843747 C105.501856,27.9452443 104.238135,28.4930704 103.071158,29.241766 C102.659995,29.5095921 101.746972,29.941766 101.982786,30.4591573 C102.2186,30.9765486 103.155809,31.4087226 103.482321,31.9930704 Z" id="Path" fill="#FBBEBE"></path>
                    <path d="M103.482321,31.9930704 C103.953661,32.9376271 104.036215,34.0311322 103.712088,35.0365486 C103.389646,36.0255457 102.938265,36.9670966 102.369763,37.8365486 C101.880489,38.7345271 101.294476,39.5755374 100.622321,40.3443747 C103.845112,40.5026356 106.971158,39.2304617 109.813019,37.6843747 C112.104647,36.4669834 114.390228,34.9148095 115.611623,32.5956791 C114.876545,32.7720801 114.101655,32.6284406 113.477205,32.2000269 C112.862265,31.7685912 112.310661,31.252229 111.8386,30.6661139 L110.224181,28.8400269 C109.842863,28.4393164 109.508146,27.9961678 109.226507,27.5191573 C108.873127,26.8711025 108.72343,26.1303453 108.797205,25.3948095 C108.154489,26.0722493 107.436247,26.6727447 106.65674,27.1843747 C105.501856,27.9452443 104.238135,28.4930704 103.071158,29.241766 C102.659995,29.5095921 101.746972,29.941766 101.982786,30.4591573 C102.2186,30.9765486 103.155809,31.4087226 103.482321,31.9930704 Z" id="Path" fill="#000000" opacity="0.1"></path>
                    <path d="M103.524647,32.3095921 C102.856778,33.259789 102.856778,34.5306996 103.524647,35.4808965 C103.615344,35.5965486 103.959995,36.3208965 104.129298,36.3269834 C104.271947,36.3147841 104.404256,36.2470953 104.498135,36.1382878 C105.228571,35.3698711 105.911113,34.5567257 106.541856,33.7035052 C107.179052,32.8392138 108.100497,32.2308751 109.141856,31.9869834 C110.405577,31.7861139 111.620926,32.461766 112.727437,33.1069834 C113.202941,33.3447994 113.616957,33.6907313 113.93674,34.1174182 C114.169848,34.5407277 114.30812,35.0102595 114.341856,35.4930704 C114.659442,38.3950482 114.780652,41.3154068 114.704647,44.2339399 C114.763417,46.3382178 114.625758,48.443402 114.293484,50.521766 C114.087902,51.5930704 113.77953,52.6400269 113.634414,53.7235052 C113.528509,54.6772655 113.486089,55.6370887 113.507437,56.5965486 L113.507437,60.6139399 C113.480846,61.3499699 113.533557,62.0867338 113.664647,62.8113313 C113.91424,63.6757342 114.206858,64.5269542 114.541391,65.361766 C114.835765,66.3553112 115.038178,67.3741476 115.146042,68.4052443 L115.690228,72.5626356 C115.865577,73.8774182 115.992554,75.307853 115.200461,76.3608965 C114.849763,76.841766 114.378135,77.2191573 113.991158,77.6939399 C112.630693,79.4348095 113.084181,81.9608965 112.47953,84.121766 C112.032201,85.7074428 111.117101,87.1189919 109.855344,88.1695921 C108.893949,88.9913313 107.648368,89.6426356 106.402786,89.3869834 C104.727902,89.0704617 103.718135,87.3113313 103.2586,85.6495921 C102.799065,83.987853 102.653949,82.1739399 101.644181,80.7800269 C100.833949,79.6295921 99.582321,78.9113313 98.4516234,78.0895921 C97.3209257,77.267853 96.2083675,76.2148095 95.9604606,74.8269834 C95.8516234,74.2182878 95.918135,73.6095921 95.8576699,73.0008965 C95.674684,71.4208291 94.6499375,70.0671446 93.1851117,69.4704617 C92.3265071,69.1356791 91.262321,69.0139399 90.7665071,68.2530704 C91.997468,67.4747056 92.8947051,66.2609785 93.2818559,64.8504617 C93.6571022,63.460692 93.8601937,62.0295428 93.8865071,60.5895921 L94.1767396,55.7565486 C94.3037164,53.5956791 94.3641815,51.4530704 95.3074373,49.5113313 C95.7306931,48.6469834 96.2567396,47.8313313 96.6920885,46.9730704 C97.2753015,45.7685338 97.7723781,44.5236325 98.1795303,43.247853 C98.8627861,41.2695921 99.5520885,39.2852443 100.162786,37.2826356 C100.407165,36.3127548 100.77288,35.3780342 101.251158,34.5008965 C101.813484,33.587853 102.557205,32.4922008 103.524647,32.3095921 Z" id="Path" fill="#E8E8F0"></path>
                    <path d="M92.8646466,63.7122008 L94.1344141,63.7548095 L94.4065071,61.8252443 C94.4426728,61.4392426 94.5322202,61.0602183 94.6725536,60.6991573 C94.8833898,60.3183849 95.1282798,59.9577611 95.4041815,59.621766 C96.6558094,57.8443747 96.5651117,55.4826356 96.8734838,53.321766 C97.2846466,50.4426356 98.4818559,47.7400269 99.6669722,45.0861139 L102.133949,39.5530704 C102.353649,39.0982106 102.529794,38.6233106 102.659995,38.1348095 C102.767753,37.5959285 102.818424,37.0470606 102.811158,36.4974182 C102.811158,35.6452443 103.089298,32.5348095 103.107437,31.6765486 C103.107437,31.3600269 102.418135,31.5365486 102.273019,31.2565486 C101.964647,30.647853 101.541391,32.3035052 100.960926,32.6687226 C100.413776,33.0898015 100.015321,33.6765474 99.8241815,34.3426356 C99.2920885,35.7365486 98.9655768,37.2035052 98.4697629,38.6035052 C98.034788,40.0372082 97.241577,41.334536 96.166042,42.3713313 C95.6641815,42.821766 95.0776699,43.1748095 94.5999954,43.6495921 C93.0641815,45.1774182 92.9190652,47.587853 92.8646466,49.7365486 C92.8283675,51.0695921 92.5804606,63.7122008 92.8646466,63.7122008 Z" id="Path" fill="#2F2E41"></path>
                    <path d="M111.155344,30.0026356 C109.946042,30.4895921 109.244647,31.8287226 108.899995,33.1313313 C108.555344,34.4339399 108.410228,35.8095921 107.745112,36.9661139 C106.197205,39.6808965 102.248833,40.4722008 101.154414,43.4061139 C100.875768,44.3968231 100.727371,45.420038 100.713019,46.4495921 C100.51953,48.5495921 99.830228,50.5826356 99.6246466,52.6826356 C99.517896,54.3161535 99.5563434,55.9560067 99.7395303,57.5826356 L101.124181,74.1574182 C101.392714,76.5985331 101.251679,79.0677252 100.706972,81.461766 C102.126975,81.6675923 103.575479,81.4273943 104.854879,80.7739399 C106.154879,80.1652443 107.339995,79.361766 108.585577,78.667853 C110.732088,77.4504617 113.102321,76.6287226 114.97674,75.0156791 C115.316838,74.7489386 115.609248,74.4257534 115.841391,74.0600269 C116.142249,73.3632372 116.345735,72.6278366 116.446042,71.8748095 C116.605142,71.2883682 116.807247,70.7146192 117.050693,70.1582878 C117.745135,68.487587 118.350645,66.7808192 118.864647,65.0452443 C119.216779,63.8940186 119.493498,62.7207739 119.693019,61.5330704 C119.844181,60.5895921 119.922786,59.6339399 120.007437,58.6843747 C120.10422,57.1906802 120.399084,55.7167352 120.884181,54.301766 C122.083536,50.9256726 122.76256,47.3846791 122.89767,43.801766 C122.939426,43.2841214 122.904787,42.7631051 122.794879,42.2556791 C122.586042,41.6403916 122.305975,41.0519941 121.960461,40.5026356 C121.386042,39.4130704 121.041391,38.2139399 120.497205,37.1122008 C119.287902,34.6165486 117.117205,32.7235052 114.849763,31.1348095 C113.688833,30.361766 112.413019,29.521766 111.155344,30.0026356 Z" id="Path" fill="#2F2E41"></path>
                    <path d="M82.2892978,57.0469834 C81.307216,56.5300787 80.4181529,55.8511055 79.6590652,55.0382878 C79.3144141,54.6304617 79.0544141,54.1739399 78.6795303,53.7722008 C77.7914762,52.8192061 76.6389796,52.1574435 75.3720885,51.8730704 C74.1138364,51.5939521 72.8266342,51.4692762 71.5386001,51.501766 C70.6782004,51.442002 69.8143556,51.5473483 68.9930187,51.8122008 C68.1548093,52.0881264 67.5156977,52.7774692 67.2999954,53.6382878 C67.1125536,54.6730704 67.7837164,55.6774182 68.5879024,56.3348095 C69.3357508,56.9498802 70.2155551,57.3812629 71.1576699,57.5948095 C71.9260664,57.7287812 72.7011841,57.8202229 73.4795303,57.8687226 C78.0506931,58.3495921 82.1320885,60.8513313 86.1348792,63.1339399 C89.6539489,65.1345197 93.2415458,67.0072733 96.8976699,68.7522008 C97.0426161,67.6506882 97.1032598,66.5395908 97.0790652,65.4287226 C97.0790652,64.6008965 97.0186001,63.3348095 96.2386001,62.847853 C95.3316234,62.2756791 93.8199954,62.147853 92.8162745,61.8069834 C90.4598143,61.0330101 88.1587721,60.0974882 85.9292978,59.0069834 C84.6655768,58.3922008 83.4562745,57.7408965 82.2892978,57.0469834 Z" id="Path" fill="#FBBEBE"></path>
                    <ellipse id="Oval" fill="#FBBEBE" cx="102.273019" cy="22.801766" rx="8.14465116" ry="8.24782609"></ellipse>
                    <path d="M113.483251,39.3522008 C112.834997,40.2692823 112.304731,41.2653236 111.905112,42.3165486 C110.895344,44.4043747 109.317205,46.1939399 108.531158,48.4035052 C107.69674,50.6982878 107.726972,53.4313313 106.112554,55.2391573 C105.788046,55.5132642 105.543538,55.8709086 105.405112,56.2739399 C105.395182,56.5252581 105.366888,56.7754995 105.320461,57.0226356 C105.090693,57.6800269 104.020461,57.7104617 103.820926,58.3800269 C103.766507,58.5748095 103.820926,58.787853 103.724181,58.9887226 C103.560926,59.4208965 102.9986,59.481766 102.61767,59.7435052 C101.825577,60.2852443 102.013019,61.5391573 101.408368,62.3182878 C100.90805,62.9070656 100.132889,63.1811157 99.3767396,63.0365486 C98.6355041,62.8793654 97.922055,62.6105454 97.2604606,62.2391573 C97.0278938,62.1074362 96.7703569,62.0265472 96.5046466,62.001766 C96.1889552,62.008465 95.8829181,62.1125762 95.6279024,62.3000269 C94.122321,63.261766 93.4148792,65.1730704 93.4268198,66.9748095 C93.5332015,68.7766286 93.9570144,70.5450523 94.6786001,72.1974182 C94.7637334,72.4829282 94.9056825,72.7480153 95.0958094,72.9765486 C95.5916234,73.5061139 96.462321,73.4208965 97.1274373,73.1226356 C97.7505575,72.7512189 98.4139694,72.4530353 99.1046466,72.2339399 C100.362321,72.0026356 101.595809,72.8791573 102.871623,72.8061139 C103.805061,72.6633116 104.683781,72.2724917 105.417205,71.6739399 C106.712256,70.8822 107.871959,69.8853374 108.851623,68.721766 C109.407902,67.9852443 109.819065,67.1452443 110.308833,66.3600269 C110.934351,65.3953156 111.621049,64.4722388 112.364647,63.5965486 L117.062786,57.807853 C117.534185,57.2597021 117.957038,56.6710808 118.326507,56.0487226 C118.75011,55.2071199 119.080619,54.3212296 119.312088,53.4069834 C119.815373,51.8815176 120.142032,50.3026594 120.285577,48.701766 C120.309568,47.3763978 120.194039,46.0521993 119.940926,44.7513313 C119.783188,43.4575305 119.443184,42.192945 118.931158,40.9956791 C117.885112,38.8652443 115.399995,37.1000269 113.483251,39.3522008 Z" id="Path" fill="#2F2E41"></path>
                    <path d="M129.845201,28.6087226 C129.858084,25.6420869 128.454365,22.8498386 126.072088,21.1035052 C125.998667,15.7420152 122.081513,11.2217081 116.814879,10.4208965 C115.797144,5.34430907 111.299884,1.74022514 106.157226,1.87990204 C101.014568,2.01957894 96.7168936,5.86253727 95.9725536,10.9869834 C92.5865071,10.2200269 89.4906931,11.2182878 88.9283675,13.3182878 C88.3237164,15.5156791 90.742321,18.0843747 94.3218559,19.0582878 C95.4434862,19.3774309 96.6122484,19.4948829 97.7744141,19.4052443 C99.4576018,21.8933045 102.105436,23.5509821 105.066507,23.9704617 C105.94369,28.0204175 109.024181,31.22056 113.01767,32.2304617 C113.559371,33.5480934 114.400121,34.7196755 115.472554,35.6513313 C115.472554,35.9069834 115.430228,36.1687226 115.430228,36.4365486 C115.324171,38.9849924 116.614286,41.3869008 118.790667,42.6929449 C120.967048,43.998989 123.679454,43.998989 125.855836,42.6929449 C128.032217,41.3869008 129.322331,38.9849924 129.216275,36.4365486 C129.216519,35.3861513 128.991718,34.3480567 128.557205,33.3930704 C129.407121,31.94434 129.852125,30.2912277 129.845201,28.6087226 Z" id="Path" fill="#F86D70"></path>
                    <path d="M91.226042,13.7382878 C91.7883675,11.6382878 94.8539489,10.6400269 98.270228,11.4069834 C99.0907539,6.20210748 103.514314,2.34767984 108.748833,2.27654865 C108.984647,2.27654865 109.220461,2.27654865 109.450228,2.27654865 C108.470402,1.97558478 107.45139,1.82376216 106.426972,1.82608696 C101.192453,1.89724506 96.7688934,5.7516727 95.9483675,10.9565486 C92.562321,10.1895921 89.4665071,11.187853 88.9041815,13.287853 C88.2995303,15.4852443 90.718135,18.0539399 94.2976699,19.027853 C94.9634974,19.2136584 95.6461225,19.3319287 96.3353443,19.3808965 C92.9372048,18.3826356 90.6516234,15.8869834 91.226042,13.7382878 Z" id="Path" fill="#000000" opacity="0.1"></path>
                    <path d="M117.727902,36.8626356 C117.727902,36.5948095 117.727902,36.3330704 117.770228,36.0713313 C116.697559,35.1423319 115.856677,33.9726517 115.315344,32.6565486 C111.32537,31.6366696 108.248421,28.4378512 107.364181,24.3904617 C104.402321,23.9731741 101.753673,22.3149868 100.072088,19.8252443 C99.394855,19.8791587 98.7138559,19.8607957 98.0404606,19.7704617 C99.7288963,22.061576 102.260101,23.5746684 105.066507,23.9704617 C105.94369,28.0204175 109.024181,31.22056 113.01767,32.2304617 C113.559371,33.5480934 114.400121,34.7196755 115.472554,35.6513313 C115.472554,35.9069834 115.430228,36.1687226 115.430228,36.4365486 C115.366039,40.3210944 118.428735,43.529344 122.286972,43.6191573 C119.517058,42.5435573 117.700352,39.8512059 117.727902,36.8626356 L117.727902,36.8626356 Z" id="Path" fill="#000000" opacity="0.1"></path>
                    <ellipse id="Oval" fill="#FBBEBE" transform="translate(104.986150, 24.481021) rotate(-37.220000) translate(-104.986150, -24.481021) " cx="104.98615" cy="24.4810209" rx="1.26076417" ry="1.68199294"></ellipse>
                </g>
                <g id="bush" transform="translate(162.000000, 342.000000)" fill-rule="nonzero">
                    <path d="M28.2140239,14.5946176 L36.3308878,9.76732918 C35.2339045,7.87030171 33.8313114,6.17205947 32.1810498,4.74275696 L16.8735707,9.55771512 L28.8660543,2.42467211 C22.8242904,-0.922647993 15.4851912,-0.796681792 9.55913147,2.75605062 C3.63307173,6.30878302 -0.000620447512,12.7611156 0,19.7301619 C0,30.6239277 8.73233181,31 19.4999733,31 C30.2676149,31 39,30.6239277 39,19.7301619 C39.006354,16.9689327 38.435256,14.2375739 37.3241677,11.7155069 L28.2140239,14.5946176 Z" id="Path" fill="#13818C"></path>
                    <path d="M30.3043805,25.3059122 C29.439224,24.4474067 28.4727302,23.6952521 27.4258003,23.0657143 C25.9560168,22.093553 24.4252465,21.1032769 22.6871208,20.7772103 C21.1624491,20.4873734 19.5889879,20.7349425 18.0338228,20.6443684 C15.3334699,20.4811804 12.7915284,19.3272172 10.904458,17.4078562 C9.79449702,16.2726616 8.92238482,14.8778214 7.58677243,14.0083106 C6.09399192,13.130058 4.33264211,12.8108428 2.62244144,13.1086085 C2.12679201,13.1769689 1.6359166,13.2757847 1.15265794,13.4044837 C0.388216356,15.5078663 -0.00178612581,17.7266324 0,19.962044 C0,30.6316656 8.73942422,31 19.5158037,31 C24.7484769,31 29.4932551,30.9154642 33,29.6051598 L32.3901313,28.5243097 C31.8361819,27.3679257 31.1352549,26.2863673 30.3043805,25.3059122 Z" id="Path" fill="#000000" opacity="0.1"></path>
                </g>
            </g>
        </g>
    </g>
</svg>