<?xml version="1.0" encoding="UTF-8"?>
<svg width="60px" height="36px" viewBox="0 0 60 36" version="1.1" xmlns="http://www.w3.org/2000/svg" xmlns:xlink="http://www.w3.org/1999/xlink">
    <!-- Generator: Sketch 57.1 (83088) - https://sketch.com -->
    <title>Path</title>
    <desc>Created with Sketch.</desc>
    <g id="Page-1" stroke="none" stroke-width="1" fill="none" fill-rule="evenodd">
        <g class="ledger-login-icon" id="Artboard" transform="translate(-495.000000, -3507.000000)" fill="#13818C" fill-rule="nonzero">
            <path d="M555,3524.99541 C555,3525.28017 554.840998,3525.55575 554.579111,3525.68436 L546.245518,3530.59888 C546.114575,3530.67237 545.983632,3530.72748 545.82463,3530.72748 C545.693687,3530.72748 545.534684,3530.69992 545.403741,3530.62644 C545.141855,3530.47027 544.982853,3530.21306 544.982853,3529.90993 L544.982853,3526.6397 L522.657054,3526.6397 C525.023383,3530.27737 526.445051,3536.45956 529.166797,3536.45956 L531.664069,3536.45956 L531.664069,3533.9977 C531.664069,3533.5384 532.028839,3533.18015 532.496493,3533.18015 L540.830086,3533.18015 C541.29774,3533.18015 541.66251,3533.5384 541.66251,3533.9977 L541.66251,3542.18244 C541.66251,3542.64175 541.29774,3543 540.830086,3543 L532.496493,3543 C532.028839,3543 531.664069,3542.64175 531.664069,3542.18244 L531.664069,3539.72978 L529.166797,3539.72978 C522.114575,3539.72978 521.58145,3526.6397 517.503507,3526.6397 L508.122369,3526.6397 C507.36477,3529.45063 504.764614,3531.55422 501.668745,3531.55422 C497.992985,3531.54504 495,3528.60551 495,3524.99541 C495,3521.3853 497.992985,3518.44578 501.668745,3518.44578 C504.764614,3518.44578 507.374123,3520.54019 508.122369,3523.3603 C511.779423,3523.3603 512.228371,3524.23297 515.099766,3517.81194 C518.850351,3509.6272 520.533905,3510.27022 525.285269,3510.27022 C525.98675,3508.35034 527.8106,3507 529.999221,3507 C532.758379,3507 535.003118,3509.19546 535.003118,3511.91452 C535.003118,3514.63358 532.767732,3516.82904 529.999221,3516.82904 C527.8106,3516.82904 525.98675,3515.46951 525.285269,3513.55882 L522.498051,3513.55882 C519.776306,3513.55882 518.354638,3519.75019 515.988309,3523.37867 L544.992206,3523.37867 L544.992206,3520.10845 C544.992206,3519.80531 545.151208,3519.5481 545.413094,3519.39194 C545.674981,3519.23577 546.011691,3519.26333 546.245518,3519.41949 L554.579111,3524.33401 C554.840998,3524.43506 555,3524.71064 555,3524.99541 Z" id="Path"></path>
        </g>
    </g>
</svg>