<?xml version="1.0" encoding="UTF-8"?>
<svg width="47px" height="36px" viewBox="0 0 47 36" version="1.1" xmlns="http://www.w3.org/2000/svg" xmlns:xlink="http://www.w3.org/1999/xlink">
    <!-- Generator: Sketch 57.1 (83088) - https://sketch.com -->
    <title>Shape</title>
    <desc>Created with Sketch.</desc>
    <g id="Page-1" stroke="none" stroke-width="1" fill="none" fill-rule="evenodd">
        <g id="Artboard" transform="translate(-1098.000000, -1386.000000)" fill="#13818C" fill-rule="nonzero">
            <path d="M1134.33333,1413 L1136.66667,1413 C1137.33333,1413 1138,1412.4 1138,1411.8 L1138,1390.2 C1138,1389.6 1137.33333,1389 1136.66667,1389 L1134.33333,1389 C1133.66667,1389 1133,1389.6 1133,1390.2 L1133,1411.8 C1133,1412.4 1133.66667,1413 1134.33333,1413 Z M1118.66667,1413 C1119.33333,1413 1120,1412.37143 1120,1411.74286 L1120,1392.25714 C1120,1391.62857 1119.33333,1391 1118.66667,1391 L1116.33333,1391 C1115.66667,1391 1115,1391.62857 1115,1392.25714 L1115,1411.74286 C1115,1412.37143 1115.66667,1413 1116.33333,1413 L1118.66667,1413 Z M1127.66667,1413 C1128.33333,1413 1129,1412.36 1129,1411.72 L1129,1398.28 C1129,1397.64 1128.33333,1397 1127.66667,1397 L1125.33333,1397 C1124.66667,1397 1124,1397.64 1124,1398.28 L1124,1411.72 C1124,1412.36 1124.66667,1413 1125.33333,1413 L1127.66667,1413 Z M1143.53125,1417.09998 L1102.98898,1417.09998 L1102.98898,1387.5 C1102.98898,1386.67125 1102.35636,1386 1101.54488,1386 L1099.46875,1386 C1098.65727,1386 1098,1386.67125 1098,1387.5 L1098,1419 C1098,1420.65656 1099.31545,1422 1100.9375,1422 L1143.53125,1422 C1144.34273,1422 1145,1421.32875 1145,1420.5 L1145,1418.58573 C1145,1417.75698 1144.34273,1417.09998 1143.53125,1417.09998 Z M1110.66667,1413 C1111.33333,1413 1112,1412.33333 1112,1411.66667 L1112,1404.33333 C1112,1403.66667 1111.33333,1403 1110.66667,1403 L1108.33333,1403 C1107.66667,1403 1107,1403.66667 1107,1404.33333 L1107,1411.66667 C1107,1412.33333 1107.66667,1413 1108.33333,1413 L1110.66667,1413 Z" id="Shape"></path>
        </g>
    </g>
</svg>