<?xml version="1.0" encoding="UTF-8"?>
<svg width="42px" height="42px" viewBox="0 0 42 42" version="1.1" xmlns="http://www.w3.org/2000/svg" xmlns:xlink="http://www.w3.org/1999/xlink">
    <!-- Generator: Sketch 58 (84663) - https://sketch.com -->
    <title>change validator</title>
    <desc>Created with Sketch.</desc>
    <g id="Page-1" stroke="none" stroke-width="1" fill="none" fill-rule="evenodd">
        <g id="Desktop-HD" transform="translate(-359.000000, -1305.000000)">
            <g id="change-validator" transform="translate(360.000000, 1306.000000)">
                <circle id="Oval" stroke="#E1E6EC" fill="#F8F8F8" cx="20" cy="20" r="20"></circle>
                <g id="Group" transform="translate(12.000000, 12.000000)" fill="#1D818B">
                    <path d="M4.73375182,7.98160512 C4.73791106,7.98567697 4.74202695,7.98979286 4.7460988,7.99395211 L4.91331048,8.16475268 C5.22625972,8.4844188 5.22625972,8.99561348 4.91331048,9.3152796 L3.274,10.9882727 L15.6490723,10.9883338 C16.1032284,10.9883338 16.4713946,11.3565001 16.4713946,11.8106562 L16.4713946,12.069948 C16.4713946,12.5241041 16.1032284,12.8922704 15.6490723,12.8922704 L3.218,12.8912727 L4.94243397,14.6529575 C5.2553832,14.9726236 5.2553832,15.4838183 4.94243397,15.8034844 L4.77522228,15.974285 C4.45751305,16.2988133 3.93687667,16.3043412 3.61234839,15.986632 L3.60000141,15.974285 L3.60000141,15.974285 L0.28208341,12.5851539 C0.220035466,12.5217742 0.170289669,12.4508655 0.132846018,12.3754132 C-0.0527762177,12.0631412 -0.0124779257,11.6542182 0.252959925,11.3830832 L3.57087792,7.99395211 C3.88858716,7.66942382 4.40922353,7.66389589 4.73375182,7.98160512 Z" id="Combined-Shape"></path>
                    <path d="M4.73375182,0.254332396 C4.73791106,0.258404244 4.74202695,0.262520137 4.7460988,0.266679379 L4.91331048,0.437479956 C5.22625972,0.757146076 5.22625972,1.26834075 4.91331048,1.58800687 L3.274,3.261 L15.6490723,3.26106111 C16.1032284,3.26106111 16.4713946,3.62922737 16.4713946,4.08338348 L16.4713946,4.34267532 C16.4713946,4.79683142 16.1032284,5.16499768 15.6490723,5.16499768 L3.218,5.164 L4.94243397,6.92568475 C5.2553832,7.24535087 5.2553832,7.75654554 4.94243397,8.07621166 L4.77522228,8.24701224 C4.45751305,8.57154053 3.93687667,8.57706846 3.61234839,8.25935922 L3.60000141,8.24701224 L3.60000141,8.24701224 L0.28208341,4.85788118 C0.220035466,4.79450149 0.170289669,4.72359274 0.132846018,4.64814049 C-0.0527762177,4.33586844 -0.0124779257,3.92694543 0.252959925,3.65581044 L3.57087792,0.266679379 C3.88858716,-0.0578489052 4.40922353,-0.0633768375 4.73375182,0.254332396 Z" id="Combined-Shape" transform="translate(8.235697, 4.256846) rotate(-180.000000) translate(-8.235697, -4.256846) "></path>
                </g>
            </g>
        </g>
    </g>
</svg>