<?xml version="1.0" encoding="UTF-8"?>
<svg width="26px" height="26px" viewBox="0 0 26 26" version="1.1" xmlns="http://www.w3.org/2000/svg" xmlns:xlink="http://www.w3.org/1999/xlink">
    <!-- Generator: Sketch 58 (84663) - https://sketch.com -->
    <title>copy-icon</title>
    <desc>Created with Sketch.</desc>
    <g id="Page-1" stroke="none" stroke-width="1" fill="none" fill-rule="evenodd">
        <g id="Desktop-HD" transform="translate(-1367.000000, -843.000000)">
            <g id="copy-icon" transform="translate(1367.000000, 843.000000)">
                <circle id="Oval" fill="#E8F0F1" cx="13" cy="13" r="13"></circle>
                <path d="M10.5420733,10.969011 L10.5420733,13.8827809 C10.5420733,14.4518998 11.0390398,14.9202371 11.6499604,14.9202371 L14.5051438,14.9202371 L14.5051438,17.0336836 C14.5051438,17.0751819 14.4671591,17.1107518 14.426009,17.1107518 L8.02875231,17.1107518 C7.98443682,17.1107518 7.94961752,17.0751819 7.94961752,17.0336836 L7.94961752,11.0460792 C7.94961752,11.004581 7.98760222,10.969011 8.02875231,10.969011 L10.5420733,10.969011 Z M17.8921129,7.88924818 C17.9775785,7.88924818 18.0503825,7.95742387 18.0503825,8.03745621 L18.0503825,13.8827809 C18.0503825,13.9628133 17.9775785,14.030989 17.8921129,14.030989 L11.6499604,14.030989 C11.5644949,14.030989 11.4916908,13.9628133 11.4916908,13.8827809 L11.4916908,8.03745621 C11.4916908,7.95742387 11.5644949,7.88924818 11.6499604,7.88924818 L17.8921129,7.88924818 Z M17.8921129,7 L11.6499604,7 C11.0390398,7 10.5420733,7.46537321 10.5420733,8.03745621 L10.5420733,10.0797629 L8.02875231,10.0797629 C7.46214719,10.0797629 7,10.5125303 7,11.0460792 L7,17.0336836 C7,17.5672326 7.46214719,18 8.02875231,18 L14.426009,18 C14.9926141,18 15.4547613,17.5672326 15.4547613,17.0336836 L15.4547613,14.9202371 L17.8921129,14.9202371 C18.5030335,14.9202371 19,14.4518998 19,13.8827809 L19,8.03745621 C19,7.46537321 18.5030335,7 17.8921129,7 L17.8921129,7 Z" id="8H" fill="#13818C"></path>
            </g>
        </g>
    </g>
</svg>