<?xml version="1.0" encoding="UTF-8"?>
<svg width="25px" height="25px" viewBox="0 0 25 25" version="1.1" xmlns="http://www.w3.org/2000/svg" xmlns:xlink="http://www.w3.org/1999/xlink">
    <!-- Generator: Sketch 58 (84663) - https://sketch.com -->
    <title>link-icon</title>
    <desc>Created with Sketch.</desc>
    <g id="Page-1" stroke="none" stroke-width="1" fill="none" fill-rule="evenodd">
        <g id="Desktop-HD" transform="translate(-1473.000000, -827.000000)">
            <g id="link-icon" transform="translate(1473.000000, 827.000000)">
                <circle id="Oval" fill="#E8F0F1" cx="12.5" cy="12.5" r="12.5"></circle>
                <g id="3E" transform="translate(7.000000, 7.000000)" fill="#36939D">
                    <path d="M10.2856875,5.9296875 C10.0007188,5.9296875 9.7700625,6.1606875 9.7700625,6.4453125 C9.7700625,6.6171875 9.7700625,8.5586875 9.7686875,9.48096875 C9.76834375,9.58409375 9.768,9.898625 9.38196875,9.91134375 L1.604625,9.91134375 C1.48259375,9.91134375 1.3915,9.88796875 1.35471875,9.84671875 C1.30246875,9.78828125 1.29284375,9.6504375 1.2986875,9.5975 C1.302125,9.5734375 1.30384375,9.54903125 1.30384375,9.524625 L1.30384375,1.74728125 C1.30384375,1.64209375 1.31828125,1.5021875 1.38840625,1.43275 C1.4595625,1.36159375 1.5846875,1.36125 1.604625,1.3605625 L4.6124375,1.3605625 C4.89740625,1.3605625 5.1280625,1.1295625 5.1280625,0.8449375 C5.1280625,0.5603125 4.89740625,0.3293125 4.6124375,0.3293125 L1.63178125,0.33 C1.5750625,0.32725 1.071125,0.31178125 0.68165625,0.6813125 C0.495,0.8586875 0.27259375,1.1873125 0.27259375,1.74728125 L0.27259375,9.49746875 C0.25815625,9.65490625 0.24578125,10.142 0.57440625,10.5208125 C0.74146875,10.7133125 1.0553125,10.9425937 1.604625,10.9425937 L9.381625,10.9425937 C9.381625,10.9425937 9.3823125,10.9425937 9.38265625,10.9425937 C9.95190625,10.9425937 10.7982188,10.5538125 10.7999375,9.48234375 C10.8013125,8.5600625 10.8013125,6.6171875 10.8013125,6.4453125 C10.8013125,6.1606875 10.5703125,5.9296875 10.2856875,5.9296875" id="Fill-9"></path>
                    <path d="M10.7645313,0.6565625 C10.7638437,0.6538125 10.7635,0.65140625 10.762125,0.64865625 C10.709875,0.5218125 10.6084687,0.42040625 10.481625,0.3678125 C10.478875,0.36678125 10.4764688,0.3664375 10.4737187,0.36540625 C10.4152813,0.34271875 10.352375,0.32896875 10.2856875,0.32896875 L6.934125,0.32896875 C6.64915625,0.32896875 6.4185,0.55996875 6.4185,0.84459375 C6.4185,1.12921875 6.64915625,1.36021875 6.934125,1.36021875 L9.04096875,1.36021875 L5.40925,4.99159375 C5.2078125,5.19303125 5.2078125,5.51959375 5.40925,5.72103125 C5.50996875,5.82175 5.64196875,5.8719375 5.77396875,5.8719375 C5.90596875,5.8719375 6.037625,5.82175 6.13834375,5.72103125 L9.7700625,2.0893125 L9.7700625,4.3250625 C9.7700625,4.6096875 10.0007188,4.8406875 10.2856875,4.8406875 C10.5703125,4.8406875 10.8013125,4.6096875 10.8013125,4.3250625 L10.8013125,0.84459375 C10.8013125,0.77825 10.7875625,0.715 10.7645313,0.6565625" id="Fill-10"></path>
                </g>
            </g>
        </g>
    </g>
</svg>