<?xml version="1.0" encoding="UTF-8"?>
<svg width="45px" height="46px" viewBox="0 0 45 46" version="1.1" xmlns="http://www.w3.org/2000/svg" xmlns:xlink="http://www.w3.org/1999/xlink">
    <!-- Generator: Sketch 58 (84663) - https://sketch.com -->
    <title>reward withdrawal </title>
    <desc>Created with Sketch.</desc>
    <g id="Page-1" stroke="none" stroke-width="1" fill="none" fill-rule="evenodd">
        <g id="Desktop-HD" transform="translate(-359.000000, -1206.000000)">
            <g id="reward-withdrawal-" transform="translate(360.000000, 1206.000000)">
                <circle id="Oval" stroke="#E1E6EC" fill="#F8F8F8" cx="20" cy="25" r="20"></circle>
                <circle id="Oval" fill="#148972" cx="34.5" cy="9.5" r="9.5"></circle>
                <path d="M33.9281709,6.32043978 C33.9319437,6.3241333 33.9356772,6.32786677 33.9393707,6.33163957 C34.2355593,6.63418533 34.2355593,7.11800196 33.9393707,7.42054773 L32.691,8.694 L39.2300257,8.69458591 C39.6552707,8.69458591 40,9.03931516 40,9.46456025 C40,9.88980534 39.6552707,10.2345346 39.2300257,10.2345346 L32.647,10.234 L33.9629264,11.5794523 C34.2591151,11.881998 34.2591151,12.3658147 33.9629264,12.6683604 C33.6747365,12.9627359 33.2024739,12.9677502 32.9080984,12.6795602 L32.8968986,12.6683604 L30.3485332,10.065299 C30.2914496,10.0069902 30.2453675,9.94194828 30.2102871,9.87276858 C30.0357323,9.57715849 30.0741383,9.19092396 30.3249775,8.93470099 L32.8733429,6.33163957 C33.1615328,6.03726411 33.6337954,6.0322498 33.9281709,6.32043978 Z" id="Combined-Shape" fill="#F8F8F8" transform="translate(35.000000, 9.500000) rotate(-270.000000) translate(-35.000000, -9.500000) "></path>
                <g id="Shape-2" transform="translate(10.000000, 15.000000)" fill="#148972" fill-rule="nonzero">
                    <path d="M18.4722016,10.5846154 L17.4990732,10.5846154 C17.2087841,9.93076923 16.7865453,9.35211538 16.2653444,8.86826923 L16.8888063,6.4 L15.8332094,6.4 C14.8633798,6.4 14.0057073,6.84134615 13.425129,7.52134615 C13.1744248,7.48538462 12.9270193,7.44615385 12.6664188,7.44615385 L8.4440313,7.44615385 C5.89080637,7.44615385 3.76311893,9.24423077 3.27160664,11.6307692 L1.84655087,11.6307692 C1.35833732,11.6307692 0.97238471,11.1894231 1.07134692,10.6892308 C1.1439192,10.3165385 1.4968844,10.0615385 1.87953827,10.0615385 L1.91252567,10.0615385 C2.0213841,10.0615385 2.11045009,9.97326923 2.11045009,9.86538462 L2.11045009,9.21153846 C2.11045009,9.10365385 2.0213841,9.01538462 1.91252567,9.01538462 C0.97238471,9.01538462 0.134504695,9.68230769 0.0157500472,10.6042308 C-0.129394522,11.7223077 0.748070375,12.6769231 1.84655087,12.6769231 L3.16604696,12.6769231 C3.16604696,14.3834615 4.00392697,15.8840385 5.27724069,16.8386538 L5.27724069,19.4769231 C5.27724069,19.7646154 5.51474999,20 5.80503913,20 L7.91623287,20 C8.20652201,20 8.4440313,19.7646154 8.4440313,19.4769231 L8.4440313,17.9076923 L12.6664188,17.9076923 L12.6664188,19.4769231 C12.6664188,19.7646154 12.9039281,20 13.1942172,20 L15.305411,20 C15.5957001,20 15.8332094,19.7646154 15.8332094,19.4769231 L15.8332094,16.8386538 C16.2224607,16.5476923 16.5688285,16.2044231 16.8657151,15.8153846 L18.4722016,15.8153846 C18.7624907,15.8153846 19,15.58 19,15.2923077 L19,11.1076923 C19,10.82 18.7624907,10.5846154 18.4722016,10.5846154 Z M13.8541667,11.6 C14.071875,11.6 14.25,11.78 14.25,12 C14.25,12.22 14.071875,12.4 13.8541667,12.4 C13.6364583,12.4 13.4583333,12.22 13.4583333,12 C13.4583333,11.78 13.6364583,11.6 13.8541667,11.6 Z M8.3125,3.2 C9.18695085,3.2 9.89583333,3.9163444 9.89583333,4.8 C9.89583333,5.6836556 9.18695085,6.4 8.3125,6.4 C7.43804915,6.4 6.72916667,5.6836556 6.72916667,4.8 C6.72916667,3.9163444 7.43804915,3.2 8.3125,3.2 Z M12.6666667,3.2 C13.3225048,3.2 13.8541667,3.7372583 13.8541667,4.4 C13.8541667,5.0627417 13.3225048,5.6 12.6666667,5.6 C12.0108285,5.6 11.4791667,5.0627417 11.4791667,4.4 C11.4791667,3.7372583 12.0108285,3.2 12.6666667,3.2 Z M10.09375,0 C10.8588945,0 11.4791667,0.62680135 11.4791667,1.4 C11.4791667,2.17319865 10.8588945,2.8 10.09375,2.8 C9.3286055,2.8 8.70833333,2.17319865 8.70833333,1.4 C8.70833333,0.62680135 9.3286055,0 10.09375,0 Z" id="Shape"></path>
                </g>
            </g>
        </g>
    </g>
</svg>