<?xml version="1.0" encoding="UTF-8"?>
<svg width="42px" height="42px" viewBox="0 0 42 42" version="1.1" xmlns="http://www.w3.org/2000/svg" xmlns:xlink="http://www.w3.org/1999/xlink">
    <!-- Generator: Sketch 58 (84663) - https://sketch.com -->
    <title>send-icon</title>
    <desc>Created with Sketch.</desc>
    <g id="Page-1" stroke="none" stroke-width="1" fill="none" fill-rule="evenodd">
        <g id="Desktop-HD" transform="translate(-359.000000, -735.000000)">
            <g id="send-icon" transform="translate(360.000000, 736.000000)">
                <circle id="Oval" stroke="#E1E6EC" fill="#F8F8F8" cx="20" cy="20" r="20"></circle>
                <path d="M18.4908961,14.3569323 L18.5119317,14.3779678 L18.5119317,14.3779678 L18.9233861,14.8017852 C19.3019668,15.1917411 19.3019668,15.8120086 18.9233861,16.2019644 L16.575,18.619 L27.9949393,18.6192901 C28.550019,18.6192901 29,19.0692711 29,19.6243508 L29,20.2541415 C29,20.8092212 28.550019,21.2592022 27.9949393,21.2592022 L16.498,21.259 L18.9634309,23.7980356 C19.3420116,24.1879914 19.3420116,24.8082589 18.9634309,25.1982148 L18.5519765,25.6220322 C18.1653276,26.0202986 17.5290281,26.0297165 17.1307617,25.6430677 L17.1097262,25.6220322 L12.3660505,20.7358238 C12.2959939,20.6636621 12.2389013,20.5836137 12.1947727,20.4985975 C11.9540522,20.1142989 11.9975142,19.6025379 12.3260058,19.2641762 L17.0696814,14.3779678 C17.4563302,13.9797014 18.0926297,13.9702835 18.4908961,14.3569323 Z" id="Combined-Shape" fill="#F25870" transform="translate(20.500000, 20.000000) rotate(-270.000000) translate(-20.500000, -20.000000) "></path>
            </g>
        </g>
    </g>
</svg>