<?xml version="1.0" encoding="UTF-8"?>
<svg width="42px" height="42px" viewBox="0 0 42 42" version="1.1" xmlns="http://www.w3.org/2000/svg" xmlns:xlink="http://www.w3.org/1999/xlink">
    <!-- Generator: Sketch 58 (84663) - https://sketch.com -->
    <title>vote-icon</title>
    <desc>Created with Sketch.</desc>
    <g id="Page-1" stroke="none" stroke-width="1" fill="none" fill-rule="evenodd">
        <g id="Desktop-HD" transform="translate(-359.000000, -1020.000000)">
            <g id="vote-icon" transform="translate(360.000000, 1021.000000)">
                <circle id="Oval" stroke="#E1E6EC" fill="#F8F8F8" cx="20" cy="20" r="20"></circle>
                <g id="vote-yea-solid" transform="translate(10.000000, 10.000000)" fill="#575A89" fill-rule="nonzero">
                    <path d="M19,13 L17,13 L17,15 L17.7,15 C17.865625,15 18,15.1125 18,15.25 L18,15.75 C18,15.8875 17.865625,16 17.7,16 L2.3,16 C2.134375,16 2,15.8875 2,15.75 L2,15.25 C2,15.1125 2.134375,15 2.3,15 L3,15 L3,13 L1,13 C0.446875,13 0,13.446875 0,14 L0,17 C0,17.553125 0.446875,18 1,18 L19,18 C19.553125,18 20,17.553125 20,17 L20,14 C20,13.446875 19.553125,13 19,13 Z M16,15 L16,1.37642045 C16,0.613636364 15.0517409,0 14.4954909,0 L5.39251594,0 C4.83314094,0 4,0.617897727 4,1.37642045 L4,15 L16,15 Z M6.6,7.3125 L7.396875,6.521875 C7.528125,6.390625 7.740625,6.390625 7.871875,6.525 L9.1625,7.825 L12.1375,4.875 C12.26875,4.74375 12.48125,4.74375 12.6125,4.878125 L13.403125,5.675 C13.534375,5.80625 13.534375,6.01875 13.4,6.15 L9.390625,10.125 C9.259375,10.25625 9.046875,10.25625 8.915625,10.121875 L6.6,7.7875 C6.465625,7.65625 6.46875,7.44375 6.6,7.3125 Z" id="Shape"></path>
                </g>
            </g>
        </g>
    </g>
</svg>