<?xml version="1.0" encoding="UTF-8"?>
<svg width="42px" height="42px" viewBox="0 0 42 42" version="1.1" xmlns="http://www.w3.org/2000/svg" xmlns:xlink="http://www.w3.org/1999/xlink">
    <!-- Generator: Sketch 58 (84663) - https://sketch.com -->
    <title>withdrawal stake</title>
    <desc>Created with Sketch.</desc>
    <g id="Page-1" stroke="none" stroke-width="1" fill="none" fill-rule="evenodd">
        <g id="Desktop-HD" transform="translate(-359.000000, -925.000000)">
            <g id="withdrawal-stake" transform="translate(360.000000, 926.000000)">
                <circle id="Oval" stroke="#E1E6EC" fill="#F8F8F8" cx="20" cy="20" r="20"></circle>
                <g id="Group-2" transform="translate(9.000000, 9.000000)" fill="#1D818B">
                    <path d="M17.477,7.91871863 L17.1214151,9.32640132 C17.6700477,9.83443978 18.1145095,10.4420263 18.4200771,11.1285648 L18.4200771,11.1285648 L19.4444227,11.1285648 C19.7499902,11.1285648 20,11.3757186 20,11.6777955 L20,11.6777955 L20,16.0716417 C20,16.3737186 19.7499902,16.6208725 19.4444227,16.6208725 L19.4444227,16.6208725 L17.7533843,16.6208725 C17.4408721,17.0293629 17.0762745,17.3897955 16.6665362,17.6953052 L16.6665362,17.6953052 L16.6665362,20.4654879 C16.6665362,20.7675648 16.4165264,21.0147186 16.1109589,21.0147186 L16.1109589,21.0147186 L13.8886497,21.0147186 C13.5830822,21.0147186 13.3330724,20.7675648 13.3330724,20.4654879 L13.3330724,20.4654879 L13.3330724,18.8177955 L8.888454,18.8177955 L8.888454,20.4654879 C8.888454,20.7675648 8.63844422,21.0147186 8.3328767,21.0147186 L8.3328767,21.0147186 L6.1105675,21.0147186 C5.80499999,21.0147186 5.5549902,20.7675648 5.5549902,20.4654879 L5.5549902,20.4654879 L5.554,19.8417186 L17.477,7.91871863 Z M11.906,7.83271863 L3.93863877,15.8015322 C3.55220118,15.059563 3.33268101,14.2194384 3.33268101,13.3254879 L3.33268101,13.3254879 L1.94373776,13.3254879 C0.787442501,13.3254879 -0.13620476,12.3231417 0.016578997,11.1491609 C0.141583889,10.1811417 1.02356285,9.48087247 2.01318492,9.48087247 C2.12777274,9.48087247 2.22152641,9.57355516 2.22152641,9.68683401 L2.22152641,9.68683401 L2.22152641,10.3733725 C2.22152641,10.4866513 2.12777274,10.579334 2.01318492,10.579334 L2.01318492,10.579334 L1.97846134,10.579334 C1.57566779,10.579334 1.20412548,10.847084 1.1277336,11.2384109 C1.02356285,11.7636129 1.42982875,12.2270263 1.94373776,12.2270263 L1.94373776,12.2270263 L3.44379647,12.2270263 C3.96117783,9.72116093 6.20084882,7.83318016 8.888454,7.83318016 L8.888454,7.83318016 L11.906,7.83271863 Z M14.5833333,12.1947186 C14.3541667,12.1947186 14.1666667,12.3837186 14.1666667,12.6147186 C14.1666667,12.8457186 14.3541667,13.0347186 14.5833333,13.0347186 C14.8125,13.0347186 15,12.8457186 15,12.6147186 C15,12.3837186 14.8125,12.1947186 14.5833333,12.1947186 Z M8.75,3.37471863 C9.67047458,3.37471863 10.4166667,4.12688025 10.4166667,5.05471863 C10.4166667,5.98255701 9.67047458,6.73471863 8.75,6.73471863 C7.82952542,6.73471863 7.08333333,5.98255701 7.08333333,5.05471863 C7.08333333,4.12688025 7.82952542,3.37471863 8.75,3.37471863 Z M13.3333333,3.37471863 C14.0236893,3.37471863 14.5833333,3.93883984 14.5833333,4.63471863 C14.5833333,5.33059741 14.0236893,5.89471863 13.3333333,5.89471863 C12.6429774,5.89471863 12.0833333,5.33059741 12.0833333,4.63471863 C12.0833333,3.93883984 12.6429774,3.37471863 13.3333333,3.37471863 Z M10.625,0.0147186258 C11.4304153,0.0147186258 12.0833333,0.672860044 12.0833333,1.48471863 C12.0833333,2.29657721 11.4304153,2.95471863 10.625,2.95471863 C9.81958474,2.95471863 9.16666667,2.29657721 9.16666667,1.48471863 C9.16666667,0.672860044 9.81958474,0.0147186258 10.625,0.0147186258 Z" id="Combined-Shape" fill-rule="nonzero"></path>
                    <rect id="Rectangle" transform="translate(10.478722, 12.126460) rotate(-315.000000) translate(-10.478722, -12.126460) " x="9.72872178" y="-1.87353966" width="1.5" height="28" rx="0.75"></rect>
                </g>
            </g>
        </g>
    </g>
</svg>